<?xml version="1.0" encoding="UTF-8"?>
<svg id="Calque_2" data-name="Calque 2" xmlns="http://www.w3.org/2000/svg" viewBox="0 0 209.64 202.7">
  <defs>
    <style>
      .cls-1 {
        fill: none;
      }

      .cls-1, .cls-2, .cls-3 {
        stroke: #bcaf87;
        stroke-miterlimit: 10;
      }

      .cls-2 {
        fill: #bcaf87;
      }

      .cls-3 {
        fill: #fff;
      }
    </style>
  </defs>
  <g id="Calque_1-2" data-name="Calque 1">
    <g>
      <path class="cls-3" d="m102.33,168.31c-3.82-.01-7.65.1-11.47-.08-2.36-.11-4.65-.91-6.96-1.4-2.82-.6-5.69-.93-8.52-1.51-.46-.09-.9-.24-1.24-.45-2.08-1.26-4.64-1.45-6.58-3.05-.58-.48-1.52-.49-2.26-.8-3.04-1.26-5.93-2.83-8.99-4.05-1.05-.42-2.04-1.25-3.05-1.9-3.32-2.11-6.77-4.05-9.66-6.78-1.39-1.32-2.39-2.95-3.72-4.33-2.44-2.52-4.75-5.19-6.93-7.94-1.17-1.47-2.77-2.57-3.6-4.3-.21-.43-.62-.38-.98-.34-.66.06-1.34.08-1.96.28-2.39.78-4.8,1.22-7.32.93-.19-.02-.39.09-.77.19.32.96.44,2,.95,2.79,2.54,3.89,5.32,7.6,8.54,10.98,1.8,1.88,3.45,3.9,5.11,5.91,1.41,1.7,1.31,3.95,1.93,5.94.18.59-.57.77-1,.88-1.6.41-3.21.54-4.76-.51-.17.84.15,1.43.39,1.9.67,1.33.35,2.69.37,4.04.01.81-.59,1.32-1.35,1.3-1.51-.05-3.03-.13-4.16-1.43-1.42-1.64-3.1-3.07-4.1-5.06-.17-.34-.39-.76-.99-.67-.1.87.17,1.7.31,2.53.34,1.99-.06,3.85-.89,5.62-.64,1.37-1.53,1.66-2.77.86-1.81-1.17-3.16-2.67-3.54-4.97-.38-2.3-.6-4.62-.91-7.06-1.13,1.15-.72,2.53-.96,3.74-.26,1.32-.29,2.69-.61,4.01-.33,1.37-1.2,2.15-2.54,2.41-1.37.26-2.39-.28-3.21-1.4-1.16-1.58-1.21-3.27-1.04-5.16.29-3.24,1.92-6.14,2.11-9.39.24-3.99.19-7.86-1.36-11.71-1.48-3.69-2.86-7.47-3.13-11.55-.14-2.18-.37-4.34.04-6.5.26-1.39.92-2.52,1.96-3.51,3.14-2.99,6.42-5.82,9.8-8.53,1.41-1.13,1.55-1.76.82-3.42-1.9-4.3-2.77-8.85-3.12-13.49-.72-9.57.02-19.16.04-28.73,0-2.3,1.11-4.41,2.24-6.43,1.44-2.58,2.64-5.27,3.81-7.99,1.04-2.41,1.82-4.94,2.97-7.28,1.19-2.43,2.86-4.61,4.26-6.94,1.82-3.01,4.38-5.41,6.68-8.01,1.89-2.13,4.13-3.94,6.45-5.68,1.83-1.37,3.74-2.69,5.49-4.18.8-.68,1.66-1.2,2.59-1.68,3.71-1.92,7.36-3.96,11.1-5.82,2.02-1.01,4.16-1.79,6.28-2.6,3.94-1.52,7.97-2.8,12.07-3.79,2.05-.49,4.18-.83,6.28-.86,3.89-.06,7.76-.38,11.64-.46,0,.54.8.35.79.89l-4.45.06c-.1,0-.2,0-.31,0-.23,0-.45,0-.68,0-.11,0-.22,0-.32,0-2.68.3-5.42.24-8.03.99-3.4.97-6.96,1.13-10.34,2.37-3.84,1.4-7.74,2.62-11.44,4.38-3.05,1.46-6.03,3.07-9.07,4.57-1,.49-2.05.88-2.97,1.53-2.88,2.04-5.74,4.09-8.51,6.28-2.64,2.09-5.15,4.3-7.33,6.88-4.99,5.91-9.07,12.28-11.51,19.74-1.15,3.52-3,6.89-5.11,10.03-.62.91-.85,1.88-.89,2.96-.08,2.08-.17,4.16-.04,6.23-.87.57-.26,1.19-.06,1.8-.05.45-.14.9-.14,1.35.06,7.67-.34,15.34.29,23,.08.95.12,1.94.43,2.9.9,2.88,1.63,5.81,2.56,8.67.41,1.26.08,2.12-.75,3.01-2.93,3.13-6.58,5.42-9.63,8.41-1.87,1.83-2.84,4.04-2.8,6.48.04,2.43.61,4.86,1.08,7.26.61,3.09,2.06,5.92,2.72,9.04.95,4.51,1.02,8.91.23,13.42-.48,2.74-1.38,5.45-1.11,8.29.13,1.41.55,2.72,1.63,3.58,1.05-.12,1.45-.76,1.71-1.54.78-2.3,1.54-4.62,1.38-7.1-.11-1.61.16-3.2.27-4.8.04-.54.08-1.12,1.06-.63,1,.49,1.27,1.22,1.53,2.13.22.77.14,1.57.33,2.35.58,2.36,1.24,4.73,1.3,7.17.04,1.62.71,2.72,2.07,3.47,1.44.79,1.85.59,2.23-.99.12-.49.16-.98.16-1.48.01-3.01-.67-5.95-.78-8.95-.02-.63-.14-1.36.64-1.56.78-.2.87.6,1.13,1.07,1.2,2.1,1.63,4.58,3.35,6.44,1.21,1.3,2.22,2.79,3.78,3.74.63.38,1.26.58,2.03.4.05-1.6.26-3.15-.77-4.65-1.47-2.12-2.75-4.38-4.1-6.59-.48-.79-.76-1.63-.46-2.62.86-.16,1.26.38,1.72,1.01,1.61,2.23,3.4,4.31,5.73,5.83.96.63,2.13.46,2.93-.45-.63-.57-.86-1.39-1.16-2.14-.56-1.42-1.42-2.61-2.43-3.73-3.65-4.07-7.43-8.03-10.5-12.59-1.17-1.73-2.2-3.52-2.12-5.7.04-.97.35-1.96,1.49-1.91,2.8.12,5.49-.22,8.1-1.27.53-.21,1.14-.22,1.71-.31.43-.07.8-.04,1.08.39,2.23,3.31,5.13,6.06,7.73,9.06,4.12,4.75,7.85,9.98,13.76,12.84.18.09.33.26.5.37,2.07,1.27,4.05,2.74,6.23,3.76,5.3,2.47,10.68,4.76,16.07,7.03,1.73.73,3.51,1.51,5.3,1.88,3.84.77,7.76,1.26,11.67,1.57,3.49.28,7,.17,10.5.23.11,0,.23-.02.34-.03.21-.02.43-.05.64-.07.11-.02.21-.04.32-.07,2.45.13,4.73-.85,7.15-1.02,1.46-.11,1.9.34,1.67,1.8-.26,1.68-.15,3.33.69,4.93,1.1,2.09,2.43,4.03,3.54,6.11.81,1.52,1.53,3.19,2.67,4.46,2.32,2.58,4.04,5.56,5.9,8.43.72,1.12,1.58,2.14,2.16,3.42.76,1.65,1.79,3.25,2.83,4.79.51.76,1.37,1.31,2.37.71.95-.56.87-1.58.53-2.33-.56-1.23-.95-2.54-1.64-3.69-1.28-2.14-1.97-4.48-2.67-6.86.41-.25.72-.1,1.07.09,1.49.83,2.89,1.77,4.26,2.79,1.68,1.26,3.22,2.77,5.31,3.39.72.21,1.51.38,2.06-.34.52-.69.29-1.42-.09-2.1-.87-1.58-2.05-2.92-3.34-4.16-.7-.68-1.42-1.33-2.16-2.02,1.09-.87,2.16-.87,3.36-.62,1.77.37,3.58.48,5.4.36.68-.04,1.27-.36,1.78-.78.68-.55.83-1.24.2-1.94-.83-.91-1.75-1.52-3.11-1.53-1.92-.02-3.84-.25-5.74-.5-.56-.07-1.23-.33-1.3-1.11-.07-.81.56-1.1,1.12-1.27.86-.27,1.74-.5,2.65-.6,2.32-.25,4.59-.67,6.38-2.37.34-.32.76-.58.55-1.12-.2-.52-.61-.75-1.17-.76-1.69-.02-3.37-.23-5.06-.25-3.26-.04-6.55.42-9.77-.26-3.57-.76-5.39-2.86-2.64-6.34.3-.39.54-.81.74-1.27,1.3-3.06,3.7-5.14,6.4-6.9.75-.48,1.63-.67,2.57-.66,2.69.03,5.29.44,7.87,1.24,3.96,1.23,8.2.99,12.17,2.25,1.71.54,3.53.81,5.18,1.48,3.12,1.28,5.71,3.48,8.53,5.27,2.63,1.66,5.25,3.31,8.17,4.43.84.32,1.7.4,2.57.27.82-.12,1.57-.53,1.78-1.34.23-.87.01-1.73-.81-2.3-1.02-.71-1.99-1.51-3.06-2.13-1.09-.63-1.84-1.48-2.43-2.62,1.17-.21,2.24.16,3.31.33,1.86.3,3.71.76,5.48-.17.48-.26,1.3-.28,1.33-1.08.03-.87-.28-1.53-1.1-2.04-1.2-.74-2.49-1-3.84-1.16-1.16-.13-2.31-.3-3.38-.82-.58-.28-.69-.74-.7-1.3-.01-.61.35-.9.88-1.04,1.28-.34,2.57-.65,3.89-.8,1.78-.2,3.64-.22,4.82-1.96.47-.69,1.21-1.41.8-2.22-.39-.78-1.39-.7-2.22-.78-1.54-.15-3.02.4-4.56.27-.48-.04-1.03.07-1.12-.73,1.24-.96,2.35-2.12,3.36-3.36.49-.6.49-1.26.3-1.88-.19-.62-.86-.52-1.4-.52-.58,0-1.15.04-1.73.13-2.34.37-4.46,1.42-6.64,2.23-3.21,1.19-6.41,1.99-9.84,1.87-.08-.1-.17-.12-.27-.02-.73-.01-1.47-.02-2.2-.03-.18-.18-.36-.2-.55-.02-.23-.02-.46-.05-.69-.07-.11,0-.22-.01-.32-.02-3.52.19-6.7-1.31-10.24-1.81,1.3-1.29,2.23-2.57,3.03-3.9,1.76-2.95,3.75-5.75,5.86-8.44,3.18-4.07,5.85-8.42,7.88-13.17.46-1.06.86-2.17,1.47-3.15,2.11-3.38,3.57-7.08,5.3-10.65,1.36-2.82,2.5-5.75,4.15-8.43.45-.74.96-1.38,1.83-1.54,1.76-.33,3.37-1.13,5.06-1.65,1.84-.56,3.27-1.71,4.52-3.15,1.67-1.93,2.66-4.43,4.92-5.88.38-.24.74-.56,1.01-.91,2.06-2.8,4.04-5.66,6.15-8.43,1.79-2.35,2.97-5.04,4.5-7.52.73-1.18.71-2.56.9-3.84-.55-.22-.89-.04-1.24.21-1.64,1.2-3.52,2.02-5.28,3.01-4.29,2.41-8.42,4.99-11.76,8.69-1.79,1.98-3.86,3.68-6.49,4.43-3.44.98-6.92.61-10.35-.12-1.26-.27-1.97-1.34-1.97-2.65,0-1,1.26-2.26,2.72-2.75.1-.01.2-.03.3-.04.48-.04.96-.08,1.44-.12.19.17.37.16.54-.02.15,0,.31,0,.46,0,.18.15.35.18.53,0,.16,0,.31,0,.47,0,.59.25,1.18.23,1.76,0,2.86.45,5.2-.95,7.4-2.38,2.55-1.66,5.21-3.17,7.62-5.06,3.13-2.45,6.37-4.74,9.95-6.52.58-.29,1.42-.57,1.34-1.28-.08-.74-.83-1.18-1.53-1.5-.43-.19-.88-.23-1.34-.22-3.37.04-6.73.34-10.05.92-2.58.45-5.12.66-7.6-.53-1.37-.65-2.8-1.22-4.26-1.62-4.02-1.08-7.72.32-11.11,2.12-3.68,1.95-7.13,4.4-10.08,7.42-1.73,1.77-3.28,3.66-3.88,6.21-.49,2.1-.69,4.28-1.56,6.27-1.12,2.55-1.72,5.27-2.89,7.84-1.27,2.79-2.69,5.4-4.8,7.56-2.57,2.64-5.31,5.14-7.78,7.85-5.15,5.66-11.54,8.81-18.8,10.58-1.77.43-3.62.5-5.33,1.24-1.82.79-3.78.99-5.74,1.27-1.91.28-3.77.15-5.62-.09-1.82-.24-3.69-.03-5.47-.61-3.8-1.25-7.74-1.97-11.51-3.38-2.14-.8-4.25-1.67-6.24-2.73-4.92-2.62-9.71-5.48-14.42-8.45-.31-.2-.63-.4-.91-.64-3.92-3.35-7.28-7.14-9.32-11.95-.18-.41-.45-.79-.71-1.16-1.32-1.82-2.32-3.79-3.21-5.86-1.28-2.97-2.1-6.04-2.66-9.21-.61-3.48-.66-6.96-.3-10.48.19-1.89.73-3.73.79-5.63.12-3.71,1.36-7.17,3-10.37,2.18-4.26,4.62-8.37,7.92-11.97,2.98-3.24,6.24-6.16,9.39-9.19,1.82-1.75,4.14-3.02,6.39-4.27,2.72-1.5,5.5-2.92,8.1-4.59,3.19-2.05,6.79-3.04,10.25-4.27,2.96-1.05,6.09-1.85,9.21-2.59,3.09-.73,6.16-1.44,9.31-1.79,1.76-.19,3.51-.31,5.27-.7,3.96-.88,7.74-2.38,11.74-3.41-7.93-.56-15.85-1.12-23.78-1.68-.1-.15-.2-.16-.3,0-.23,0-.46-.02-.68-.02-.11-.09-.23-.19-.49-.4.53.05.9-.02,1.2-.28,1.4.02,2.8.03,4.21.05.09.12.19.14.3.02.23,0,.46,0,.69,0,.09.15.19.17.32.04.23,0,.45,0,.68,0,.11.01.23.02.34.03.21,0,.42-.01.64-.02.12.02.24.03.36.05,5.24.52,10.51.23,15.76.33.46,0,.93-.07,1.37.02.62.14,1.51-.13,1.72.81.22.99-.04,1.82-1.02,2.29-.59.28-1.18.64-1.8.76-2.21.43-4.36,1.04-6.49,1.81-3.09,1.12-6.39,1.25-9.64,1.51-1.03.08-1.87.67-2.9.8-1.93.25-3.89.38-5.78.94-5,1.5-10.02,2.97-15.03,4.45-1.72.51-3.1,1.66-4.66,2.48-2.88,1.5-5.64,3.21-8.49,4.78-2.48,1.36-4.87,2.91-6.92,4.81-2.58,2.39-5.16,4.79-7.47,7.48-1.51,1.76-3.06,3.49-4.52,5.29-.13.16-.32.29-.41.46-1.98,3.87-4.49,7.56-5.35,11.86-.7,3.47-1.6,6.92-1.77,10.53-.11,2.4-.14,4.79-.13,7.18,0,1.06.26,2.15.58,3.21.43,1.43.65,2.93,1.05,4.37,1.18,4.2,3.22,8.04,5.42,11.76,2.01,3.39,4.46,6.46,7.41,9.15,2.52,2.3,5.37,4.05,8.32,5.68,3.19,1.76,6.36,3.54,9.6,5.21,2.14,1.1,4.42,1.9,6.67,2.6,3.22.99,6.38,2.26,9.78,2.64,2.04.23,4.05.72,6.09.99,1.99.27,3.94-.25,5.9-.53,3.82-.54,7.42-1.97,11.2-2.75,4.56-.94,8.77-3.02,12.26-6.13,3.17-2.82,6.42-5.59,9.13-8.9,1.53-1.87,3.46-3.39,4.7-5.53,1.34-2.34,2.57-4.71,3.23-7.34.02-.08-.02-.18.01-.25,1.54-2.89,1.73-6.23,3.08-9.18.54-1.17.65-2.44,1.09-3.63,1-2.7,3.1-4.41,5.17-6.15,3.28-2.75,6.71-5.37,10.71-6.9,4.94-1.89,9.96-1.96,14.8.62,2.02,1.08,4.19.68,6.3.43,3-.36,5.99-.84,8.97-1.34,2.9-.48,4.64,1.31,6.35,3.14.75.8.27,1.44-.55,1.87-1.36.7-2.75,1.33-4.07,2.13-3.86,2.34-7.46,5.08-11.3,7.45-2.65,1.64-4.86,3.94-7.84,5.08-1.09.42-2.13.84-3.33.81-1.74-.05-3.49,0-5.23,0-.8,0-1.54.2-2.26.56-.38.19-.51.45-.5.87,0,.46.31.57.62.65,3.85.98,7.69,1.22,11.45-.35,1.19-.5,2.09-1.48,3.02-2.37,2.28-2.17,4.67-4.18,7.19-6.07,3.77-2.83,7.82-5.09,12.11-6.98.83-.37,1.65-.74,2.63-.49.63,2.02.06,3.82-.89,5.62-1.8,3.4-3.63,6.8-5.87,9.92-2.05,2.85-3.87,5.85-6.52,8.28-1.62,1.49-3.08,3.21-4.31,5.12-1.46,2.26-3.7,3.63-6.26,4.41-1.49.45-3.02.79-4.42,1.51-.86.44-1.4,1.08-1.76,1.98-2.04,5.08-4.16,10.15-6.79,14.94-1.55,2.83-3.18,5.6-4.39,8.58-1.74,4.29-4.66,7.77-7.35,11.44-2.15,2.94-4.2,5.95-6.26,8.95-.14.2-.08.54-.13.91,4.38.52,8.67,1.6,13.03,1.22,3.02-.26,6.01-.92,8.84-2.23,1.97-.91,4.1-1.5,6.2-2.06,2.69-.72,4.61.87,4.29,3.43-.12.96-.85,1.66-1.22,2.49.2.49.58.43.96.43.5,0,1-.03,1.49.02,2.65.26,3.72,2.29,2.4,4.58-1.23,2.13-3.08,3.27-5.54,3.36-.43.02-.81.1-1.28.4,1.28.55,2.49,1.1,3.71,1.6,3.7,1.51,2.85,4.23.76,6.1-.73.66-1.87.49-2.84.61-.8.1-1.63.02-2.64.02.82.66,1.46,1.22,2.15,1.71,1.3.93,1.43,2.25,1.26,3.66-.04.33-.28.7-.54.94-1.64,1.56-4.27,1.95-6.36,1.03-.52-.23-1.09-.36-1.63-.54-3.31-1.08-5.75-3.55-8.56-5.4-2.59-1.7-5.16-3.38-8.19-4.13-1.74-.43-3.32-1.39-5.15-1.51-2.29-.15-4.6-.29-6.81-1-3.4-1.09-7.01-1.15-10.41-2.19-.52-.16-.82.2-1.22.38-4.04,1.77-6.44,5.07-8.27,8.87-.8,1.66-.08,2.46,2.09,2.93,2.86.62,5.73.49,8.62.46,1.78-.02,3.57.02,5.35.04.75,0,1.48.17,2.17.47,1.98.87,2.25,2.82.53,4.18-.68.54-1.48.92-2.18,1.44-.71.53-1.54.78-2.53,1.32,1.37.18,2.37.77,3.37,1.37,2.33,1.41,2.63,4.44.5,5.59-1.43.78-3,1.08-4.64.71-.96-.22-1.92-.12-3.2-.09.69.62,1.13,1.03,1.58,1.43,2.04,1.81,2.33,4.15,1.88,6.64-.21,1.18-1.34,1.21-2.24,1.34-1.42.2-2.68-.27-3.79-1.17-.93-.76-1.9-1.48-2.8-2.27-.52-.45-1.11-.61-1.87-.78.19,1.1.61,1.95,1.16,2.75,1.35,1.96,1.78,4.07,1.15,6.41-.33,1.23-1.26,1.55-2.27,1.79-.88.22-1.46-.38-2-.96-1.96-2.07-3.18-4.6-4.59-7.04-1.5-2.62-3.28-5.08-5.04-7.54-3.16-4.4-6.11-8.93-8.5-13.8-.79-1.62-1.48-3.33-.8-5.21.05-.13-.04-.31-.07-.54-2.64.02-5.02,1.4-7.63,1.23-.09,0-.19.02-.28.03Z"/>
      <path class="cls-3" d="m105.1,1c-.3.26-.67.32-1.2.28.26.22.37.31.49.4-3.6.31-7.2.32-10.81.26-.25,0-.5.01-.69-.2,0-.54-.8-.35-.79-.89,3.37-.51,6.75-.38,10.12-.15.96.06,1.98-.22,2.89.3Z"/>
      <path class="cls-3" d="m102.33,168.31c.09,0,.19-.02.28-.03-.09,0-.19.02-.28.03Z"/>
      <path class="cls-3" d="m112.61,1.18c-.12-.02-.24-.03-.36-.05.14-.11.25-.09.36.05Z"/>
      <path class="cls-3" d="m111.62,1.15c-.11-.01-.23-.02-.34-.03.11.01.23.02.34.03Z"/>
      <path class="cls-3" d="m110.61,1.12c-.12.13-.23.11-.32-.04.11.01.21.03.32.04Z"/>
      <path class="cls-3" d="m109.6,1.08c-.11.11-.21.09-.3-.02.1,0,.2.01.3.02Z"/>
      <path class="cls-1" d="m92.88,1.74c.19.21.44.2.69.2,3.61.06,7.21.05,10.81-.26.23,0,.46.02.68.02.1,0,.2,0,.3,0,7.93.56,15.85,1.12,23.78,1.68-4,1.03-7.78,2.53-11.74,3.41-1.76.39-3.51.5-5.27.7-3.15.35-6.23,1.05-9.31,1.79-3.11.74-6.24,1.54-9.21,2.59-3.46,1.23-7.05,2.22-10.25,4.27-2.6,1.67-5.38,3.09-8.1,4.59-2.25,1.25-4.57,2.52-6.39,4.27-3.15,3.03-6.42,5.95-9.39,9.19-3.3,3.6-5.75,7.71-7.92,11.97-1.64,3.2-2.87,6.65-3,10.37-.06,1.9-.6,3.74-.79,5.63-.36,3.52-.31,6.99.3,10.48.56,3.17,1.38,6.24,2.66,9.21.89,2.06,1.89,4.04,3.21,5.86.27.37.54.75.71,1.16,2.05,4.81,5.41,8.6,9.32,11.95.28.24.6.44.91.64,4.72,2.97,9.5,5.83,14.42,8.45,2,1.06,4.1,1.93,6.24,2.73,3.77,1.4,7.71,2.12,11.51,3.38,1.77.58,3.65.37,5.47.61,1.85.25,3.71.37,5.62.09,1.96-.29,3.92-.49,5.74-1.27,1.71-.74,3.56-.81,5.33-1.24,7.26-1.78,13.65-4.92,18.8-10.58,2.46-2.71,5.21-5.21,7.78-7.85,2.11-2.16,3.52-4.77,4.8-7.56,1.17-2.57,1.77-5.29,2.89-7.84.87-1.99,1.07-4.17,1.56-6.27.59-2.55,2.15-4.44,3.88-6.21,2.95-3.02,6.39-5.47,10.08-7.42,3.39-1.8,7.1-3.19,11.11-2.12,1.46.39,2.89.96,4.26,1.62,2.49,1.19,5.02.98,7.6.53,3.32-.58,6.67-.88,10.05-.92.46,0,.9.03,1.34.22.71.32,1.45.76,1.53,1.5.08.71-.76,1-1.34,1.28-3.57,1.79-6.82,4.07-9.95,6.52-2.41,1.89-5.07,3.4-7.62,5.06-2.19,1.43-4.54,2.83-7.4,2.38-.59,0-1.18,0-1.76,0-.16,0-.31,0-.47,0-.18,0-.35,0-.53,0-.15,0-.31,0-.46,0-.18,0-.36.01-.54.02-.48.04-.96.08-1.44.12-.1.01-.2.03-.3.04-1.47.48-2.72,1.75-2.72,2.75,0,1.31.7,2.38,1.97,2.65,3.44.72,6.91,1.1,10.35.12,2.63-.75,4.7-2.45,6.49-4.43,3.34-3.7,7.47-6.27,11.76-8.69,1.76-.99,3.64-1.8,5.28-3.01.35-.26.69-.44,1.24-.21-.19,1.29-.17,2.66-.9,3.84-1.54,2.48-2.72,5.18-4.5,7.52-2.11,2.76-4.09,5.63-6.15,8.43-.26.36-.63.67-1.01.91-2.26,1.44-3.25,3.95-4.92,5.88-1.25,1.44-2.67,2.59-4.52,3.15-1.7.52-3.3,1.32-5.06,1.65-.87.16-1.37.8-1.83,1.54-1.65,2.68-2.79,5.61-4.15,8.43-1.73,3.57-3.19,7.27-5.3,10.65-.61.98-1.02,2.08-1.47,3.15-2.03,4.75-4.7,9.1-7.88,13.17-2.11,2.7-4.09,5.49-5.86,8.44-.8,1.34-1.73,2.61-3.03,3.9,3.53.5,6.72,2.01,10.24,1.81.1.1.21.12.32.02.23.02.46.05.69.07.18,0,.37.02.55.02.73.01,1.47.02,2.2.03.09,0,.18.01.27.02,3.42.13,6.63-.68,9.84-1.87,2.18-.81,4.3-1.86,6.64-2.23.58-.09,1.15-.13,1.73-.13.54,0,1.2-.1,1.4.52.19.61.19,1.28-.3,1.88-1.02,1.24-2.12,2.4-3.36,3.36.09.8.64.69,1.12.73,1.53.13,3.02-.42,4.56-.27.83.08,1.83,0,2.22.78.4.81-.34,1.53-.8,2.22-1.18,1.74-3.04,1.76-4.82,1.96-1.33.15-2.61.46-3.89.8-.53.14-.89.43-.88,1.04,0,.56.12,1.02.7,1.3,1.07.52,2.22.69,3.38.82,1.35.15,2.64.42,3.84,1.16.82.5,1.13,1.17,1.1,2.04-.03.8-.85.82-1.33,1.08-1.78.94-3.63.47-5.48.17-1.07-.17-2.13-.54-3.31-.33.58,1.14,1.34,2,2.43,2.62,1.07.62,2.04,1.41,3.06,2.13.82.58,1.05,1.43.81,2.3-.22.81-.97,1.22-1.78,1.34-.87.12-1.73.05-2.57-.27-2.92-1.11-5.54-2.76-8.17-4.43-2.83-1.79-5.42-3.99-8.53-5.27-1.65-.68-3.47-.94-5.18-1.48-3.97-1.26-8.21-1.02-12.17-2.25-2.58-.8-5.18-1.21-7.87-1.24-.93-.01-1.82.17-2.57.66-2.7,1.76-5.1,3.84-6.4,6.9-.2.47-.43.89-.74,1.27-2.75,3.48-.93,5.58,2.64,6.34,3.21.68,6.51.22,9.77.26,1.69.02,3.37.23,5.06.25.56,0,.97.24,1.17.76.21.54-.21.8-.55,1.12-1.79,1.7-4.06,2.13-6.38,2.37-.91.1-1.79.33-2.65.6-.56.18-1.19.47-1.12,1.27.07.78.74,1.04,1.3,1.11,1.9.25,3.82.48,5.74.5,1.36.02,2.28.62,3.11,1.53.63.7.48,1.38-.2,1.94-.51.42-1.11.74-1.78.78-1.81.12-3.63,0-5.4-.36-1.2-.25-2.27-.25-3.36.62.74.69,1.46,1.34,2.16,2.02,1.29,1.24,2.47,2.58,3.34,4.16.37.68.61,1.41.09,2.1-.55.73-1.35.56-2.06.34-2.09-.62-3.63-2.12-5.31-3.39-1.36-1.02-2.77-1.97-4.26-2.79-.34-.19-.65-.35-1.07-.09.71,2.37,1.4,4.71,2.67,6.86.69,1.15,1.08,2.46,1.64,3.69.34.75.42,1.76-.53,2.33-1,.59-1.86.04-2.37-.71-1.04-1.54-2.07-3.13-2.83-4.79-.59-1.28-1.44-2.3-2.16-3.42-1.86-2.88-3.58-5.85-5.9-8.43-1.14-1.27-1.86-2.94-2.67-4.46-1.11-2.08-2.44-4.03-3.54-6.11-.84-1.59-.95-3.24-.69-4.93.23-1.47-.21-1.91-1.67-1.8-2.41.17-4.7,1.15-7.15,1.02-.11.02-.21.04-.32.07-.21.02-.43.05-.64.07-.12-.14-.24-.12-.34.03-3.5-.06-7.02.05-10.5-.23-3.91-.31-7.83-.8-11.67-1.57-1.79-.36-3.57-1.15-5.3-1.88-5.39-2.28-10.77-4.57-16.07-7.03-2.19-1.02-4.16-2.49-6.23-3.76-.18-.11-.32-.28-.5-.37-5.9-2.86-9.63-8.09-13.76-12.84-2.6-3-5.5-5.74-7.73-9.06-.28-.42-.65-.46-1.08-.39-.57.1-1.18.1-1.71.31-2.61,1.05-5.3,1.39-8.1,1.27-1.14-.05-1.45.95-1.49,1.91-.09,2.19.95,3.97,2.12,5.7,3.07,4.56,6.85,8.53,10.5,12.59,1.01,1.12,1.86,2.31,2.43,3.73.3.75.53,1.57,1.16,2.14-.8.91-1.97,1.08-2.93.45-2.33-1.53-4.12-3.6-5.73-5.83-.45-.63-.85-1.17-1.72-1.01-.3.99-.02,1.83.46,2.62,1.35,2.21,2.63,4.47,4.1,6.59,1.04,1.49.83,3.04.77,4.65-.78.18-1.4-.02-2.03-.4-1.56-.95-2.57-2.44-3.78-3.74-1.72-1.86-2.15-4.34-3.35-6.44-.27-.47-.35-1.27-1.13-1.07-.78.2-.66.93-.64,1.56.11,2.99.79,5.94.78,8.95,0,.5-.04.98-.16,1.48-.39,1.58-.79,1.78-2.23.99-1.36-.75-2.03-1.85-2.07-3.47-.06-2.44-.72-4.81-1.3-7.17-.19-.79-.11-1.58-.33-2.35-.26-.91-.53-1.64-1.53-2.13-.99-.49-1.03.09-1.06.63-.11,1.6-.38,3.19-.27,4.8.16,2.48-.6,4.8-1.38,7.1-.27.78-.66,1.42-1.71,1.54-1.08-.86-1.5-2.17-1.63-3.58-.27-2.84.63-5.55,1.11-8.29.79-4.5.72-8.91-.23-13.42-.66-3.12-2.11-5.95-2.72-9.04-.47-2.4-1.04-4.83-1.08-7.26-.04-2.44.93-4.65,2.8-6.48,3.06-2.99,6.7-5.28,9.63-8.41.83-.89,1.16-1.75.75-3.01-.93-2.86-1.66-5.8-2.56-8.67-.3-.96-.35-1.95-.43-2.9-.63-7.66-.23-15.33-.29-23,0-.45.09-.9.14-1.35.18-.6.15-1.2.06-1.8-.13-2.08-.05-4.16.04-6.23.04-1.08.28-2.05.89-2.96,2.11-3.13,3.96-6.51,5.11-10.03,2.44-7.47,6.52-13.83,11.51-19.74,2.18-2.58,4.69-4.79,7.33-6.88,2.77-2.19,5.63-4.24,8.51-6.28.92-.65,1.97-1.04,2.97-1.53,3.03-1.5,6.01-3.11,9.07-4.57,3.69-1.77,7.6-2.98,11.44-4.38,3.38-1.24,6.94-1.39,10.34-2.37,2.61-.75,5.35-.69,8.03-.99.11.15.22.14.32,0,.23,0,.45,0,.68,0,.1.14.21.14.31,0l4.45-.06Zm76.77,153.16c-.11,0-.22-.01-.33-.02-.23,0-.46,0-.69-.01-.18,0-.36,0-.55,0-.15,0-.3,0-.45,0-.1,0-.2,0-.3,0h-.69c-.1,0-.2,0-.3,0-.15,0-.3,0-.45,0-.18,0-.36-.01-.53-.02-2.8.19-5.35-1.09-8.05-1.46-1.09-.15-2.22-.36-3.2-.81-1.72-.79-3.52-1.22-5.36-1.46-.88-.12-1.74-.54-2.67-.3-.4.1-.72.24-.84.63-.11.37.17.61.41.84.62.59,1.41.87,2.21,1.02,3.68.72,7.32,1.69,10.91,2.75,4.08,1.2,8.16,1.32,12.3,1.34.21.16.39.1.56-.05.73.02.98-.32,1-1.05.02-.71-.29-.98-.89-1.07-.69-.11-1.38-.21-2.07-.31ZM8.15,128.39c.16.61.02,1.21.16,1.84.34,1.58,1.16,2.96,1.62,4.48,1.08,3.59,2.25,7.15,3.76,10.59.33.75.67,1.58,1.67,1.24.97-.34.45-1.27.52-1.96,0-.07-.09-.15-.1-.22-.35-2.36-1.65-4.41-2.1-6.78-.52-2.81-2.03-5.34-2.36-8.26-.22-1.95-.02-3.74.6-5.53.78-2.26,2.44-3.8,4.35-5.11.71-.49,1.46-.94,2.18-1.44.63-.44.61-1.1.32-1.66-.31-.6-.89-.47-1.41-.2-2.41,1.29-4.87,2.47-6.37,4.96-1.5,2.5-2.78,5.04-2.84,8.04Zm81.71-10.05c-.95.25-1.62.75-2.02,1.66-1.25,2.82-3.4,4.11-6.51,3.92-2.34-.14-4.24-1.71-4.92-3.95-.41-1.34.08-2.5.21-3.74.06-.61.41-1.35-.41-1.77-.89-.46-1.67-.26-2.34.44-.73.77-1.14,1.69-1.16,2.75-.05,3.46,1.75,5.83,4.53,7.61.49.31,1.07.49,1.5.87,2.11,1.83,4.47,1.7,6.67.53,2.49-1.32,3.72-3.79,4.48-6.43.16-.54.55-1.16-.03-1.89Zm69.35,7.75c.98.23,1.59-.25,2.06-1.01,1.84-2.95,3.68-5.9,5.5-8.86.17-.27.23-.61.34-.92,1.66-4.95,3.18-9.96,5.73-14.55,1.29-2.32,2.71-4.53,5.38-5.56.62-.24,1.13-.82,1.64-1.31.36-.35,1.01-.74.56-1.32-.43-.57-1.11-.4-1.68-.09-2.04,1.13-4.01,2.41-5.41,4.3-2.46,3.33-4.52,6.91-5.65,10.94-1.57,5.63-4.22,10.69-7.61,15.41-.62.86-1.2,1.79-.87,2.97Zm-29.29,57.09c.31-1.24-.4-2-1.1-2.76-1.47-1.59-3.41-2.61-5.03-4.04-3.51-3.11-5.1-8.82-1.8-12.99,1.05-1.33,1.97-2.76,2.89-4.19.29-.45.56-1.17.05-1.53-.47-.33-1.17-.31-1.68.24-2.65,2.83-4.94,5.83-5.37,9.9-.31,2.97.11,5.65,2.21,7.95,1.96,2.15,3.98,4.23,6.33,5.95.99.73,1.93,1.74,3.51,1.47Zm-28.63-63.12c-.47.82-.58,1.62-.42,2.38.38,1.78,1.02,3.51,2.11,4.97.69.92,1.54,1.8,2.83,2.01,2.84.45,5.68.4,8.42-.41,1.4-.41,2.72-1.3,3.4-2.71.93-1.93,1.17-4.02,1.21-6.14.02-.98-.59-1.1-1.31-.86-.97.32-1.41,1.14-1.49,2.09-.2,2.26-1.4,3.75-3.27,4.94-2.8,1.79-6.87.83-8.35-2.11-.28-.55-.47-1.16-.8-1.68-.59-.94-1.04-2.05-2.32-2.48Zm66.05-51.22c.02,2.41.27,2.81,2.81,4.49,3.37,2.23,6.56,1.94,9.39-.86,2.58-2.56,2.69-5.67.29-8.38-1.93-2.18-4.96-2.91-7.77-1.85-3.24,1.22-4.74,3.32-4.71,6.61Zm-122.61-6.9c-.59-.2-1.22-.39-1.82-.63-1.18-.49-2.53-.8-3.25-1.95-1.6-2.57-1.96-5.24-.31-7.97.51-.85,1.12-1.34,2.2-1.28,1.23.08,2.42.42,3.64.5.5.03,1.25.32,1.37-.61.1-.76,0-1.4-.92-1.61-.67-.15-1.34-.34-1.99-.59-2.69-1.02-5.89.36-6.81,3.11-.39,1.15-.87,2.27-1.11,3.51-.84,4.37,2.74,9.2,7.17,9.41,1.46.07,1.95-.42,1.83-1.88Zm5.22,25.35c-1.1-.17-2.15.23-3.23.37-1.75.24-3.52.21-4.73-1.29-.91-1.13-1.46-2.48-1.95-3.9-1.11-3.23,1.95-6.28,4.77-6.18.35.01.7.02,1.07-.15.6-.28.99-.68.93-1.3-.06-.6-.66-.69-1.15-.76-1-.13-1.98.02-2.96.22-2.68.55-5.53,3.48-5.4,6.63.15,3.79,1.93,6.51,5.02,8.4,1.74,1.06,3.72,1.29,5.73.6,1.46-.5,2.03-1.25,1.91-2.65Zm83.58,33.63c2.01.04,3.73-.62,5.46-1.27,2.11-.8,3.87-3.43,4.04-5.66.2-2.6-.79-4.95-1.33-7.4-.22-.99-1-1.09-1.74-.79-.69.28-1.25.75-.86,1.73.53,1.29.92,2.63,1.39,3.95.71,2.02-.07,4.17-1.93,5.23-1.23.7-2.56,1.17-3.9,1.6-.7.23-1.47.23-2.19-.03-1.04-.38-2.09-.71-3.03-1.32-.37-.24-.85-.58-1.25-.19-.39.38-.2.92,0,1.39.28.62.67,1.15,1.27,1.49,1.3.75,2.65,1.34,4.08,1.28Zm-77.9-23.65c-.15,0-.33-.04-.47,0-2.87.92-4.88,4.41-4.37,7.55.7,4.27,4.63,7.63,8.92,7.62.46,0,.92.02,1.37-.03,2.32-.3,4-1.57,5.22-3.51.25-.4.27-.85-.13-1.11-.33-.21-.67-.46-1.18-.03-.79.66-1.73,1.13-2.61,1.68-1.87,1.16-3.77.97-5.7.15-1.69-.71-2.23-2.39-3.1-3.76-.82-1.3-.85-2.67.12-4.02.75-1.04,1.37-2.17,1.85-3.37.15-.37.42-.74.08-1.17Zm8.53-71.14c.31-2.16-1.9-4.97-4.14-5.18-2.39-.23-4.71-.13-6.33,2.06-.74,1-1.55,1.95-2.19,3.01-1.49,2.47-1.63,6.8,1.15,8.72.33.23.59.61,1.08.32.39-.23.55-.56.58-1.02.04-.74-.19-1.37-.59-1.98-.58-.9-1.16-1.87-.92-2.99.42-1.99,1.47-3.65,3.37-4.45,2.07-.88,4.12-.52,5.86.94.67.56,1.32.76,2.13.58Zm82.86,72.67c-.38,1.15.43,1.58,1.21,1.96,1.96.95,4.02,1.02,5.98.2,1.27-.53,2.75-1,3.24-2.6.3-.98.76-1.94.87-2.94.42-3.96-.33-5.89-4.39-7.24-.52.59-.31,1.13.12,1.65.76.93,1.4,1.94,2.01,2.98.44.75.49,1.51.29,2.27-.29,1.12-.75,2.19-1.45,3.14-.4.54-.9.89-1.61,1.03-1.52.32-3.01.37-4.45-.3-.59-.27-1.18-.31-1.81-.14ZM78.75,9.78c-1.91-.3-3.43.38-4.77,1.66-1.35,1.28-2.25,2.83-2.91,4.54-.21.53-.15,1.09.08,1.67.25.62.67.81,1.24.79.53-.02.74-.35.85-.88.18-.79.44-1.57.76-2.32,1.17-2.72,3.89-4.47,6.91-2.42.48.32.98.62,1.5.87.39.19.83.57,1.26.21.49-.4.32-1,.21-1.51-.1-.45-.43-.79-.78-1.09-1.25-1.13-2.63-1.88-4.35-1.52Zm-30.16,71.48c.03-1.17-1.31-2.45-2.6-2.49-1.73-.05-2.88.71-2.92,1.93-.03,1.23,1.53,3.3,2.5,3.31.95,0,3-1.86,3.02-2.76Zm56.38,54.6c-1.6,0-2.11.51-2.11,2.12,0,1.42,1.04,2.56,2.4,2.62,1.22.06,2.3-1.29,2.33-2.92.03-1.16-.92-1.82-2.62-1.82Zm-57.22-41.94c-1.04.02-2.75,1.49-2.71,2.33.05.95,1.76,2.79,2.54,2.74.76-.05,2.45-2.01,2.47-2.85.01-.93-1.33-2.23-2.3-2.22Zm-8.67-22.33c1.97.01,2.69-.49,2.51-1.84-.16-1.19-1.02-1.92-2.01-2.32-.98-.4-2.07-.19-2.91.49-.29.24-.71.65-.56,1.16.36,1.17,1.62,2.76,2.97,2.5Zm57.79,56.02c0-1.93-.46-2.47-2.07-2.47-1.54,0-2.2.61-2.17,2.02.03,1.48.94,2.46,2.31,2.48,1.48.02,1.94-.46,1.93-2.02Zm-47.26-15.21c-1.82,0-2.78.75-2.81,2.21-.03,1.21.8,2.04,2.08,2.06,1.35.02,2.65-1.11,2.66-2.31,0-1.38-.56-1.96-1.92-1.96Zm-23.16-38.36c-1.55,0-2.06.39-2.07,1.6-.01,1.37.94,2.65,2.05,2.62,1.31-.04,2.03-.81,2.17-2.6.08-1.04-.75-1.62-2.15-1.62Zm21.1-34.1c0-1.35-.77-2.34-1.82-2.33-1.43.02-2.48.97-2.45,2.22.02,1.09,1.08,2.09,2.19,2.06,1.25-.03,2.07-.81,2.08-1.96Zm34.01,79.51c1.71,0,2.29-.49,2.31-1.98.02-1.19-.55-1.82-1.65-1.84-1.49-.02-3.03,1.07-3.05,2.16-.02,1.15.71,1.66,2.38,1.66Zm-21.3,3.32c0-1.08-.96-2.35-1.8-2.37-.83-.03-2.43,1.28-2.44,1.99-.01.84,1.62,2.52,2.44,2.52.95,0,1.81-1.02,1.8-2.14Zm-5.73,14.75c-.02-1.14-.95-2.17-1.95-2.16-1,.02-2.25,1.28-2.27,2.29-.02,1.05,1.01,1.99,2.13,1.94,1.33-.06,2.11-.83,2.09-2.07ZM29.13,61.81c.02-1.39-.39-1.96-1.45-1.99-1.38-.04-2.54.98-2.56,2.26-.02,1.25.52,1.77,1.84,1.79,1.48.03,2.15-.61,2.17-2.06Zm96.66,61.11c-.6-.08-1.35-.11-1.67.58-.36.76-.04,1.53.49,2.15.24.28.54.51.84.71.79.53,1.56.4,2.29-.13.7-.52.93-1.25.78-2.07-.16-.91-1-1-1.68-1.22-.3-.1-.65-.02-1.05-.02Zm-75.2,6.05c0-1.67-.65-2.64-1.77-2.62-1.15.03-2.02.97-2.03,2.21-.01,1.15,1.14,2.3,2.31,2.29.93,0,1.49-.72,1.5-1.89Zm-24.33-18.28c-1.45,0-2.12.51-2.12,1.64,0,1.12,1.08,2.34,2.09,2.36,1.21.03,2.17-.79,2.15-1.84-.02-1.36-.8-2.15-2.13-2.16Zm69.89,42.86c1.11,0,2.1-1.28,2.18-2.85.04-.83-.79-1.4-2.03-1.4-1.22,0-1.89.77-1.9,2.2-.02,1.49.45,2.03,1.75,2.04Zm-58.45-59.57c-1.55.05-2.42.89-2.34,2.23.06.96.91,1.79,1.82,1.77,1.61-.04,2.21-.83,2.18-2.73-.02-1.23-.67-1.47-1.66-1.26Zm97.54,49.34c0-1.3-.39-1.74-1.59-1.77-1.22-.03-2.43,1.08-2.4,2.2.03,1.16.93,2.09,2,2.08.98,0,1.99-1.27,1.99-2.5Zm-66.72-25.89c-.01-1-.86-1.75-2-1.76-1.03,0-2.23.94-2.25,1.76-.02,1,1.24,2.22,2.28,2.23,1.18,0,1.97-.91,1.96-2.23Zm64.9,15.44c1.81,0,1.82-.02,1.82-2.06,0-1.32-.4-1.69-1.82-1.68-1.53,0-1.95.44-1.94,2.03,0,1.55.2,1.72,1.93,1.72Zm-62.93,20.59c.13-.72-.08-1.38-.96-1.77-.9-.41-1.37.15-1.87.72-.38.44-.76.87-1.16,1.29-.41.43-.42,1.06-.08,1.3,1,.69,2.12.72,3.3.33.97-.32.72-1.06.76-1.87Zm43.38,5.08c1.14.01,1.62-.69,1.6-2.32-.01-.89-1.09-1.74-2.19-1.73-1.06.02-1.69.64-1.72,1.71-.04,1.34.93,2.33,2.31,2.34Zm-74.75-29.39c.01-.9-.47-1.36-.88-1.85-.47-.55-.84-1.56-1.75-1.02-.88.52-1.32,1.47-1.1,2.55.12.56.39,1.1.88,1.45.43.3.75.89,1.48.39.65-.45,1.28-.83,1.38-1.53Zm19.69-23.39c.98,0,2.02-.99,1.98-1.85-.06-1.16-1.04-2.2-2.07-2.2-1.04,0-1.94.99-1.94,2.12,0,.94,1.05,1.94,2.03,1.93Zm48.74,16.05c.03,1.69.57,2.13,2.2,1.79.36-.07.72-.15,1.07-.26,1.01-.31,1.33-1.19.68-2-.55-.69-1.31-1.15-2.21-1.22-1.33-.1-1.76.35-1.74,1.7Zm-37.74,6.06c-1.34,0-1.82.54-1.82,2.02,0,1.2.47,1.73,1.54,1.75,1.51.03,2.2-.52,2.2-1.78,0-1.3-.66-1.99-1.93-1.99Zm69.69,11.41c-.01,1.14.68,2.07,1.53,2.04,1.04-.03,2.16-1.28,2.2-2.45.03-1.1-.64-1.79-1.71-1.78-1.1.01-2,.99-2.01,2.19Zm-52.78,20.26c1.42-.02,2.47-.85,2.44-1.77-.03-.91-1.22-2.25-2.01-2.27-.91-.02-2,1.45-1.98,2.63.02,1.21.9,1.29,1.55,1.41Zm30.35-21.23c0-1.29-.61-1.94-1.83-1.95-1.28,0-1.93.76-1.91,2.27.02,1.23.84,1.46,1.83,1.48,1.36.02,1.91-.5,1.92-1.79ZM18.44,65.28c-.96-.01-2.22.88-2.27,1.61-.05.7,1.46,2.18,2.23,2.18.89,0,2.01-1.1,2.03-1.99.02-.97-.89-1.79-1.99-1.8Zm128.32,64.35c-1.2-.02-2.03.56-2.06,1.46-.05,1.35.63,2.27,1.7,2.28,1.55.01,2.01-.39,2.04-1.79.03-1.49-.34-1.92-1.68-1.95Zm-23.73,15.35c-.01-1.19-.37-1.62-1.35-1.63-1.12,0-2.91,1.28-2.9,2.09,0,.77.99,1.41,2.15,1.41,1.56,0,2.12-.5,2.11-1.87ZM22.9,52.72c0-1.68-.14-1.85-1.54-1.85-1.46,0-2.4.64-2.45,1.68-.04.88,1.11,1.79,2.26,1.8,1.58,0,1.73-.13,1.73-1.63Zm145.02,24.85c.02-1.11-.91-2.02-2.05-2-.82.01-1.99,1.15-1.99,1.91,0,.77,1.23,1.79,2.21,1.84,1.03.05,1.81-.7,1.83-1.75Zm-124.08-23.97c-1.07,0-1.74.79-1.76,2.07-.01,1.15.66,1.93,1.65,1.91.97-.02,1.9-1.22,1.87-2.42-.03-1.09-.57-1.58-1.76-1.57Zm89.15,59.3c0,1.09.67,1.8,1.67,1.78,1.13-.02,2.06-.79,2.06-1.68,0-1-1.03-2.07-1.99-2.07-1.31,0-1.73.48-1.74,1.96Zm15.75-6.69c-.88-.04-1.84-.03-2.04,1.18-.13.82,1.71,2.32,2.7,2.32,1.25,0,1.42-.97,1.36-1.79-.09-1.28.08-1.78-2.02-1.7Zm-25.73,25.6c.02-1.23-.77-2.15-1.87-2.16-.71,0-1.87,1.17-1.88,1.9-.01.93,1.25,2.12,2.26,2.13.94,0,1.47-.65,1.49-1.87Zm-79.19-26.01c.1-1.04-.15-1.84-1.38-1.89-1.1-.04-2.14.89-2.11,1.84.02.84,1.15,2.27,1.82,2.31.77.05,1.67-1.16,1.67-2.26Zm117.8-1.62c0,1.68.83,2.58,2.02,2.53.96-.04,1.53-.5,1.51-1.55-.03-1.14-1.22-2.58-2.18-2.46-1.07.13-1.32.95-1.35,1.49Zm-141.46-3c-1.21.02-1.79.68-1.78,2.01,0,1.2.53,1.79,1.55,1.77,1.07-.02,2.16-1.01,2.17-1.97.02-.96-.91-1.83-1.94-1.81Zm43.33,38.28c0-.93-1.09-1.88-2.1-1.85-1.04.04-1.98.92-1.86,1.9.09.72.04,1.63,1.23,1.61,1.65-.03,2.73-.66,2.72-1.66Zm-23.07-22.29c-1.21,0-2.09,0-2.09,1.22,0,1.12,1.43,2.53,2.46,2.57,1.14.04,1.15-.9,1.2-1.53.13-1.71-.43-2.28-1.57-2.27Zm-11.56-76.57c.02-1.13-.59-1.96-1.43-1.96-.97,0-2.04,1.19-2.05,2.28,0,1.12.53,1.76,1.47,1.74,1.14-.03,1.99-.9,2.01-2.05Zm75.49,119.12c.02-1.15-.73-2.13-1.68-2.18-.83-.05-1.81,1.17-1.82,2.28-.01,1.15.62,1.73,1.85,1.74,1.03,0,1.63-.67,1.65-1.83Zm-17.06-10.88c1.67,0,2.34-.44,2.35-1.55.01-.99-.79-1.64-2.06-1.68-1.34-.04-1.98.5-1.99,1.66,0,1.13.46,1.56,1.7,1.56Zm67.37-22.85c0-.14,0-.27,0-.39-.06-.76-.14-1.52-.95-1.88-.5-.22-1.02-.11-1.34.34-.57.8-1.44,1.68-1.12,2.62.3.88,1.43,1.03,2.37.93.98-.11,1.13-.82,1.05-1.62Zm-2.02-29.49c1.37.02,1.94-.46,1.95-1.62,0-1.1-.56-1.62-1.81-1.63-1.48-.02-2.12.45-2.15,1.59-.03,1.04.7,1.64,2.01,1.66Zm-123.32-10.7c0,1.33.76,2.26,1.79,2.22.8-.03,1.56-1.1,1.54-2.18-.01-1.2-.58-1.81-1.69-1.81-1.22,0-1.65.47-1.64,1.78Zm2.52,15.42c0-1.5-.69-2.26-1.99-2.28-1.46-.02-1.21,1.05-1.24,1.92-.03,1.06.82,2.14,1.59,2.1,1.02-.06,1.64-.71,1.64-1.73Zm53.76,39.18c1.82-.02,2.06-.23,2.05-1.67,0-1.27-.35-1.63-1.58-1.61-1.33.01-2.15.76-2.17,1.95-.02,1.38,1.02,1.23,1.7,1.34Zm-4.43,8.56c.03-1.51-.46-2.1-1.66-2.12-1.1-.02-1.8.67-1.86,1.81-.05,1.03.69,1.66,1.98,1.71,1.02.03,1.73-.25,1.54-1.39ZM64.92,14.72c-1.32,0-1.71.4-1.67,1.79.02.85.15,1.7,1.27,1.77.95.05,2.22-1.16,2.22-2.09,0-.99-.58-1.46-1.82-1.46Zm3.27,127.44c0,.71-.06,1.36.45,1.62.48.25,1.04-.07,1.48-.37.59-.4,1.04-.97,1.24-1.65.28-.94-.26-1.58-1.05-1.81-.58-.18-1.46-.48-1.8.45-.22.61-.24,1.29-.32,1.76ZM35.97,29.94c1.34,0,1.86-.43,1.88-1.56.02-1.09-.62-1.72-1.72-1.7-1.26.02-2.05.73-2.03,1.8.02.94.7,1.47,1.87,1.46Zm-.46,83c1.11-.02,2.18-.91,2.08-1.81-.11-.93-.69-1.45-1.66-1.47-1.18-.02-2.33.89-2.29,1.81.03.68,1.05,1.48,1.87,1.47Zm11.57-83.28c.02-1-.84-1.95-1.8-1.97-.6-.01-1.72.99-1.7,1.53.02.51,1.37,2.31,1.75,2.32,1.07.04,1.72-.66,1.75-1.88Zm-15.95,92.41c-.02-.82-1.02-1.89-1.77-1.91-.74-.01-2.04,1.41-1.96,2.25.09.99.85,1.24,1.67,1.24,1.2,0,2.08-.72,2.06-1.58Zm25.81,24.52c-1.22,0-1.68.43-1.65,1.58.02.91.49,1.65,1.31,1.85.85.21,2.22-1.18,2.17-2.1-.06-1.13-.85-1.39-1.83-1.33Zm-37.25-62.91c0-.85-1.15-2.09-1.82-2.12-.6-.03-1.71,1.18-1.71,1.86,0,.73,1.28,1.94,2.03,1.83.94-.14,1.37-.82,1.5-1.57Zm106.88,55.98c.76-.03,1.71-1,1.68-1.72-.03-.98-.86-1.81-1.78-1.77-.83.03-1.96.96-1.96,1.6,0,.72,1.31,1.92,2.05,1.89Zm34.57-23.9c0-1.42-.41-1.85-1.66-1.82-.9.02-1.84.86-1.84,1.63,0,.82.9,1.64,1.81,1.59.93-.05,1.92-.08,1.68-1.4ZM31.17,52.12c.92,0,1.97-.96,1.91-1.92-.06-1.03-.77-1.35-1.72-1.33-1.14.02-1.73.6-1.74,1.75,0,.99.4,1.58,1.55,1.51Zm61.93,81.74c-.98-.03-1.22.27-1.27,1.62-.05,1.27.4,1.89,1.44,1.86.96-.03,1.57-.49,1.59-1.52.03-1.14-.68-1.93-1.76-1.96Zm-32.96-1.39c-.06-1.1-.44-1.66-1.52-1.61-1.14.05-1.87.61-1.9,1.64-.03.94.54,1.49,1.39,1.6,1.09.14,2.02-.74,2.03-1.63Zm100.97-59.57c.8-.19,1.77-.16,1.77-1.42,0-1.02-.85-1.93-1.87-1.91-1.08.03-1.34.82-1.4,1.71-.07,1.03.5,1.51,1.5,1.63ZM37.88,38.63c-.12-.74-.5-1.3-1.49-1.27-.93.03-2.05.79-2.04,1.46,0,.58,1.34,1.81,1.97,1.83.84.02,1.57-.86,1.56-2.01Zm19.83-8.45c.49-.43,1.72.09,1.78-1.13.06-1.16-.84-1.87-2.08-1.87-1.04,0-1.49.6-1.62,1.49-.09.64,1.06,1.55,1.92,1.52Zm85.65,90.73c-1.06,0-1.93.89-1.88,1.99.04.85.53,1.25,1.36,1.26,1.11,0,1.9-.67,1.9-1.66,0-.9-.19-1.69-1.37-1.59ZM69.79,6.74c-.83.03-1.85,1.17-1.82,2.04.03.77.94,1.46,1.87,1.46,1.09,0,1.39-.88,1.28-1.57-.12-.72.14-2.01-1.32-1.92Zm7.94,131.36c1.25,0,1.95-.74,1.94-1.72,0-.82-.84-1.78-1.53-1.76-.84.02-1.47.84-1.46,1.94,0,.89.38,1.48,1.04,1.54Zm90.91-53.46c-.03-1.27-.52-1.87-1.37-1.86-.77,0-1.8,1.07-1.63,1.83.19.84.59,1.64,1.66,1.67,1.31.04,1.08-1.06,1.34-1.63Zm-17.27,55.5c1.06.02,1.94-.76,1.91-2.07-.02-.77-.89-1.09-1.62-1.18-.83-.11-1.48.79-1.5,1.9-.01.84.29,1.36,1.21,1.35ZM78.16,13.97c-.98-.03-1.78.75-1.71,1.77.06.82.59,1.38,1.39,1.45.92.08,1.6-.72,1.64-1.75.04-.92-.27-1.54-1.33-1.47ZM22.11,94.26c1.03.03,2.16-.75,2.07-1.41-.13-.99-.89-1.28-1.79-1.35-.96-.07-1.59.41-1.64,1.3-.06.92.62,1.37,1.36,1.47Zm129.9,20.38c-.87.12-1.62.41-1.83,1.37-.16.77.43,1.36.95,1.34.83-.04,1.81.11,2.49-.63.09-.09.07-.33.03-.48-.19-.89-.7-1.47-1.64-1.6Zm-101.1,5.04c-.87.02-1.93.86-1.84,1.54.12.91.88,1.25,1.62,1.16.72-.09,1.77.02,1.83-1.18.04-.86-.7-1.54-1.61-1.51Zm105.99-39.16c-.43-.02-1.3-.19-1.24,1.07.04.89.75,1.47,1.79,1.45.98-.02,1.5-.42,1.46-1.51-.04-1.29-.91-1-2.02-1Zm9.67,13c-.94-.14-1.56.1-1.49,1.21.06.95.59,1.58,1.46,1.72.8.13,1.56-.85,1.49-1.84-.06-.88-.52-1.35-1.46-1.09ZM49.05,19.81c.09-1.15-.78-1.1-1.5-1.14-.98-.06-1.66.5-1.69,1.4-.02.64.36,1.39,1.26,1.38,1.05,0,1.93-.78,1.93-1.64Zm144.75,45.29c-.02-1.03-.75-1.51-1.58-1.52-.99-.02-1.17.91-1.17,1.68,0,.77.41,1.56,1.26,1.5.83-.06,1.54-.59,1.5-1.65ZM43.49,136.13c-.96-.16-1.57.26-1.66,1.27-.06.74.92,1.45,1.82,1.48.85.03,1.18-.32,1.17-1.18,0-.93-.08-1.7-1.34-1.57Zm143.26-68.56c-.94,0-1.81.66-1.67,1.38.14.72.51,1.43,1.35,1.57.73.11,1.57-.86,1.62-1.69.06-1-.43-1.34-1.3-1.26ZM21.66,124.93c.8.02,1.5-.24,1.49-1.19,0-.85-.44-1.51-1.39-1.6-.65-.06-1.7.92-1.66,1.56.05.94.67,1.24,1.56,1.23Zm174.48-44.91c1.1-.28,1.81-.86,1.77-1.87-.02-.49-.42-1.04-1.14-1.12-.81-.09-1.41.23-1.71.92-.48,1.1.52,1.5,1.08,2.07Zm-39.19,53.1c.67-.15,1.51-.13,1.44-1.23-.06-1-.7-1.28-1.6-1.27-.85.01-1.33.5-1.37,1.25-.04.93.64,1.23,1.52,1.24Zm-44.26,15c.75.06,1.17-.12,1.14-1.02-.04-.99-.52-1.5-1.43-1.49-.75.01-1.32.45-1.34,1.31-.02,1.18.87,1.1,1.63,1.19Zm21.47,4.88c-.74.12-1.35.43-1.4,1.36-.05.98.66,1.14,1.37,1.19.85.05,1.32-.45,1.34-1.28.02-.81-.5-1.16-1.31-1.26Zm52.92-62.53c.13-.84-.75-.77-1.31-.88-.59-.11-1.81,1.04-1.71,1.53.14.65.67.91,1.29.86.83-.06,1.7-.15,1.72-1.52Zm-88.41,52.78c-.1-.57.08-1.45-1.02-1.39-.93.05-1.26.67-1.32,1.5-.06.92.41,1.22,1.28,1.26,1,.05,1.04-.58,1.06-1.37Zm-19.74,12.19c.09-.78-.18-1.38-1.04-1.33-.83.05-1.21.74-1.25,1.47-.04.79.44,1.44,1.25,1.39.83-.04,1.13-.72,1.04-1.54Zm47.96-4.36c.63-.05,1.47.25,1.41-.86-.05-.87-.55-1.4-1.43-1.39-.93,0-1.34.75-1.36,1.49-.02.88.81.72,1.39.76Zm60.65-65.57c.03-1.04-.41-1.49-1.34-1.47-.57.01-1.16.06-1.16.88,0,.81.73,1.59,1.54,1.59.78,0,.93-.52.96-1.01Zm.07-22.09c-.07-.72-.2-1.37-1.18-1.36-.98.01-1.09.73-1.12,1.42-.03.86.66,1.26,1.34,1.29.76.03.93-.66.96-1.34Zm12.13,10.65c.08.41-.24,1.24.71,1.15.71-.07,1.62-.23,1.53-1.23-.06-.64-.06-1.52-1.18-1.45-1,.06-1.09.67-1.05,1.53Zm-1.16-12.75c-.59,0-1.1.37-1.11,1.16,0,.76.57,1.29,1.21,1.29.59,0,1.28-.34,1.3-1.21.01-.82-.39-1.22-1.39-1.24Zm-26.69,25.23c-.24,1.09-.02,1.9.87,2.44,1-.21,1.7-1.03,1.46-1.78-.26-.8-1.38-.76-2.33-.66Zm-29.74,63.01c1.37-.71,1.65-1.31,1.06-2.2-.32-.48-.71-.88-1.31-.46-.71.49-.6,1.63.25,2.66ZM55.03,15.16c1.64.07,2.24-.29,2.26-1.23.02-.86-.64-.96-1.18-.92-1.41.1-.99,1.21-1.08,2.15Zm137.09,67.11c-.78-.09-.82.53-.83,1.12-.01.7.2,1.18,1.06,1.14.87-.03,1.18-.53,1.15-1.27-.03-.77-.59-1.01-1.38-.99Zm-12.35,5.97c.4-.08,1.3,0,1.23-.9-.07-.88-1.01-.97-1.71-1.05-.56-.07-1.02.27-.98.95.04.77.48,1.09,1.46,1ZM89.19,10.85c-.2-.86-.94-1.18-1.71-1.27-.56-.07-.9.45-.84.99.09.86.82,1.08,1.52,1.14.49.04.99-.12,1.02-.85Zm7.53-3.08c.57-.07,1.19-.03,1.16-.81-.04-.91-.78-1.1-1.47-1.16-.58-.05-1.08.29-1.06.94.02.89.78.91,1.37,1.04Zm-7.44-3.31c-.43.29-1.13.32-1.1.98.04.93.94,1.02,1.57,1.25.43.15.93-.18.89-.74-.06-.8-.74-1.1-1.36-1.49Zm16.13,146.38c.58-.02,1.4.09,1.37-.71-.02-.69-.76-1.04-1.44-1.03-.69.01-.99.59-.96,1.18.03.57.46.8,1.04.56Zm-.57-145.42c0-.46-.15-.91-.67-.84-.7.09-1.27.52-1.27,1.29,0,.45.32.91.85.84.67-.1,1.09-.54,1.08-1.28Zm-23.93.83c.68.09.99-.22,1.04-.89.05-.73-.49-1-.98-1.02-.67-.03-.98.56-1.04,1.16-.07.69.4.82.97.74Zm30.61-.71c.72-.36,1.18-.81,1.03-1.65-.5-.2-.97-.24-1.51.03.13.52-.23,1.14.48,1.63Z"/>
      <path class="cls-3" d="m11.89,67.79c.1.6.13,1.21-.06,1.8-.2-.61-.82-1.23.06-1.8Z"/>
      <path class="cls-3" d="m176.81,76.57c.59,0,1.18,0,1.76,0-.59.24-1.17.26-1.76,0Z"/>
      <path class="cls-3" d="m162.65,148.52c-.18,0-.37-.02-.55-.02.19-.18.38-.16.55.02Z"/>
      <path class="cls-3" d="m175.82,76.58c.18,0,.35,0,.53,0-.18.18-.35.15-.53,0Z"/>
      <path class="cls-3" d="m174.81,76.6c.18,0,.36-.01.54-.02-.18.18-.36.19-.54.02Z"/>
      <path class="cls-3" d="m102.54,166.62c.11-.02.21-.04.32-.07-.11.02-.21.04-.32.07Z"/>
      <path class="cls-3" d="m101.56,166.72c.1-.15.22-.17.34-.03-.11,0-.23.02-.34.03Z"/>
      <path class="cls-3" d="m165.13,148.57c-.09,0-.18-.01-.27-.02.1-.1.18-.08.27.02Z"/>
      <path class="cls-3" d="m161.42,148.43c-.11.1-.22.09-.32-.02.11,0,.22.01.32.02Z"/>
      <path class="cls-3" d="m173.07,76.76c.1-.01.2-.03.3-.04-.1.01-.2.03-.3.04Z"/>
      <path class="cls-3" d="m88.43,1.8c-.1.15-.2.15-.31,0,.1,0,.2,0,.31,0Z"/>
      <path class="cls-3" d="m87.44,1.82c-.1.15-.21.16-.32,0,.11,0,.22,0,.32,0Z"/>
      <path class="cls-3" d="m105.36,1.71c-.1,0-.2,0-.3,0,.1-.15.2-.14.3,0Z"/>
      <path class="cls-3" d="m8.15,128.39c.06-3,1.34-5.54,2.84-8.04,1.49-2.49,3.96-3.67,6.37-4.96.52-.28,1.1-.4,1.41.2.29.56.31,1.22-.32,1.66-.72.49-1.46.94-2.18,1.44-1.9,1.32-3.56,2.86-4.35,5.11-.62,1.79-.82,3.58-.6,5.53.33,2.92,1.84,5.46,2.36,8.26.44,2.36,1.75,4.41,2.1,6.78.01.08.1.15.1.22-.07.69.45,1.63-.52,1.96-1,.35-1.34-.49-1.67-1.24-1.51-3.44-2.68-7-3.76-10.59-.46-1.52-1.28-2.9-1.62-4.48-.13-.63,0-1.23-.16-1.84Z"/>
      <path class="cls-3" d="m89.86,118.34c.57.73.18,1.35.03,1.89-.77,2.64-1.99,5.11-4.48,6.43-2.2,1.17-4.56,1.3-6.67-.53-.43-.37-1.01-.55-1.5-.87-2.78-1.78-4.58-4.15-4.53-7.61.02-1.06.43-1.98,1.16-2.75.67-.71,1.45-.9,2.34-.44.82.42.47,1.16.41,1.77-.13,1.24-.62,2.4-.21,3.74.69,2.24,2.59,3.8,4.92,3.95,3.11.19,5.26-1.1,6.51-3.92.4-.9,1.08-1.4,2.02-1.66Z"/>
      <path class="cls-3" d="m159.22,126.09c-.33-1.18.26-2.11.87-2.97,3.39-4.72,6.04-9.79,7.61-15.41,1.12-4.02,3.18-7.61,5.65-10.94,1.4-1.89,3.36-3.17,5.41-4.3.57-.32,1.25-.48,1.68.09.45.59-.21.98-.56,1.32-.5.49-1.01,1.07-1.64,1.31-2.67,1.04-4.09,3.24-5.38,5.56-2.55,4.59-4.07,9.6-5.73,14.55-.1.31-.17.65-.34.92-1.82,2.96-3.67,5.91-5.5,8.86-.47.76-1.08,1.24-2.06,1.01Z"/>
      <path class="cls-3" d="m129.93,183.18c-1.58.26-2.52-.75-3.51-1.47-2.35-1.72-4.37-3.8-6.33-5.95-2.1-2.3-2.52-4.98-2.21-7.95.43-4.07,2.72-7.07,5.37-9.9.52-.55,1.22-.57,1.68-.24.51.36.24,1.08-.05,1.53-.92,1.43-1.84,2.86-2.89,4.19-3.3,4.17-1.72,9.88,1.8,12.99,1.62,1.43,3.55,2.44,5.03,4.04.7.76,1.41,1.53,1.1,2.76Z"/>
      <path class="cls-3" d="m101.3,120.07c1.28.43,1.73,1.54,2.32,2.48.33.52.52,1.12.8,1.68,1.48,2.94,5.55,3.9,8.35,2.11,1.88-1.2,3.07-2.68,3.27-4.94.08-.95.52-1.77,1.49-2.09.72-.24,1.33-.12,1.31.86-.04,2.12-.28,4.21-1.21,6.14-.68,1.41-2,2.3-3.4,2.71-2.74.81-5.58.85-8.42.41-1.3-.2-2.15-1.09-2.83-2.01-1.09-1.46-1.73-3.19-2.11-4.97-.16-.75-.05-1.55.42-2.38Z"/>
      <path class="cls-3" d="m167.34,68.84c-.03-3.28,1.47-5.39,4.71-6.61,2.81-1.06,5.84-.34,7.77,1.85,2.4,2.71,2.29,5.82-.29,8.38-2.82,2.8-6.02,3.09-9.39.86-2.53-1.68-2.78-2.08-2.81-4.49Zm6.75,3.68c.4,0,.74.04,1.07,0,1.57-.21,3.04-.55,3.89-2.14.87-1.62.59-3.12-.37-4.53-2.12-3.13-6.93-2.63-8.96.91-1.41,2.46-.86,4.34,1.56,5.38.92.4,1.89.49,2.81.39Z"/>
      <path class="cls-3" d="m44.73,61.94c.12,1.47-.37,1.95-1.83,1.88-4.43-.21-8.01-5.04-7.17-9.41.24-1.24.72-2.36,1.11-3.51.92-2.74,4.12-4.12,6.81-3.11.64.24,1.31.43,1.99.59.92.21,1.02.85.92,1.61-.12.93-.87.64-1.37.61-1.22-.08-2.41-.42-3.64-.5-1.08-.07-1.69.43-2.2,1.28-1.65,2.74-1.29,5.4.31,7.97.72,1.15,2.07,1.47,3.25,1.95.6.25,1.23.43,1.82.63Z"/>
      <path class="cls-3" d="m49.96,87.29c.12,1.39-.45,2.15-1.91,2.65-2,.68-3.99.46-5.73-.6-3.09-1.89-4.86-4.6-5.02-8.4-.13-3.15,2.72-6.08,5.4-6.63.98-.2,1.96-.35,2.96-.22.49.06,1.09.15,1.15.76.06.62-.33,1.02-.93,1.3-.38.17-.72.16-1.07.15-2.83-.1-5.89,2.96-4.77,6.18.49,1.42,1.04,2.77,1.95,3.9,1.21,1.5,2.98,1.53,4.73,1.29,1.08-.15,2.13-.54,3.23-.37Z"/>
      <path class="cls-3" d="m133.54,120.92c-1.43.06-2.78-.53-4.08-1.28-.6-.34-.99-.87-1.27-1.49-.21-.47-.4-1.01,0-1.39.39-.38.87-.05,1.25.19.94.61,2,.94,3.03,1.32.72.26,1.49.26,2.19.03,1.34-.43,2.67-.9,3.9-1.6,1.86-1.06,2.64-3.21,1.93-5.23-.46-1.32-.86-2.66-1.39-3.95-.4-.98.17-1.45.86-1.73.74-.3,1.52-.21,1.74.79.54,2.45,1.53,4.8,1.33,7.4-.17,2.23-1.93,4.86-4.04,5.66-1.72.65-3.45,1.31-5.46,1.27Z"/>
      <path class="cls-3" d="m165.89,154.86c.15,0,.3,0,.45,0,.1.14.2.15.3,0h.69c.1.14.2.13.3,0,.15,0,.3,0,.45,0,.18.18.36.18.55,0,.23,0,.46,0,.69.01.1.11.21.13.33.02.69.1,1.38.2,2.07.31.6.1.91.37.89,1.07-.02.73-.28,1.07-1,1.05-.19.02-.38.04-.56.05-4.15-.01-8.23-.14-12.3-1.34-3.58-1.05-7.22-2.03-10.91-2.75-.8-.16-1.59-.43-2.21-1.02-.24-.23-.52-.47-.41-.84.12-.39.44-.53.84-.63.94-.24,1.79.19,2.67.3,1.84.25,3.64.67,5.36,1.46.98.45,2.11.66,3.2.81,2.71.37,5.25,1.65,8.05,1.46.17.18.35.19.53.02Z"/>
      <path class="cls-3" d="m55.64,97.27c.34.43.07.79-.08,1.17-.48,1.2-1.1,2.33-1.85,3.37-.97,1.35-.94,2.72-.12,4.02.87,1.37,1.41,3.05,3.1,3.76,1.93.82,3.83,1.01,5.7-.15.88-.55,1.82-1.02,2.61-1.68.51-.43.85-.18,1.18.03.4.26.38.71.13,1.11-1.22,1.94-2.9,3.21-5.22,3.51-.45.06-.91.03-1.37.03-4.29.01-8.23-3.35-8.92-7.62-.51-3.14,1.51-6.63,4.37-7.55.15-.05.32,0,.47,0Z"/>
      <path class="cls-3" d="m64.16,26.14c-.81.18-1.46-.02-2.13-.58-1.74-1.46-3.79-1.81-5.86-.94-1.89.8-2.95,2.46-3.37,4.45-.24,1.12.34,2.08.92,2.99.4.61.63,1.24.59,1.98-.03.46-.19.79-.58,1.02-.48.29-.75-.09-1.08-.32-2.78-1.92-2.64-6.25-1.15-8.72.64-1.06,1.45-2.01,2.19-3.01,1.62-2.2,3.94-2.29,6.33-2.06,2.24.22,4.46,3.03,4.14,5.18Z"/>
      <path class="cls-3" d="m147.02,98.81c.63-.16,1.23-.13,1.81.14,1.44.68,2.93.62,4.45.3.7-.15,1.2-.49,1.61-1.03.7-.94,1.16-2.01,1.45-3.14.2-.77.15-1.53-.29-2.27-.61-1.04-1.25-2.05-2.01-2.98-.43-.52-.64-1.06-.12-1.65,4.06,1.35,4.81,3.28,4.39,7.24-.11,1-.57,1.96-.87,2.94-.49,1.59-1.97,2.06-3.24,2.6-1.96.82-4.02.76-5.98-.2-.78-.38-1.59-.8-1.21-1.96Z"/>
      <path class="cls-3" d="m78.75,9.78c1.72-.36,3.1.39,4.35,1.52.34.31.68.64.78,1.09.11.51.28,1.11-.21,1.51-.44.36-.87-.02-1.26-.21-.52-.25-1.02-.55-1.5-.87-3.02-2.05-5.74-.3-6.91,2.42-.32.75-.59,1.53-.76,2.32-.12.53-.32.86-.85.88-.57.02-.99-.17-1.24-.79-.23-.58-.29-1.14-.08-1.67.66-1.7,1.56-3.26,2.91-4.54,1.34-1.27,2.86-1.95,4.77-1.66Z"/>
      <path class="cls-3" d="m48.59,81.27c-.02.89-2.07,2.76-3.02,2.76-.97,0-2.53-2.08-2.5-3.31.03-1.22,1.18-1.98,2.92-1.93,1.29.04,2.63,1.32,2.6,2.49Z"/>
      <path class="cls-3" d="m104.97,135.87c1.69,0,2.65.67,2.62,1.82-.04,1.63-1.11,2.98-2.33,2.92-1.36-.07-2.4-1.2-2.4-2.62,0-1.61.51-2.13,2.11-2.12Z"/>
      <path class="cls-3" d="m47.75,93.92c.96-.02,2.31,1.28,2.3,2.22-.01.84-1.7,2.8-2.47,2.85-.78.06-2.5-1.79-2.54-2.74-.04-.84,1.67-2.31,2.71-2.33Z"/>
      <path class="cls-3" d="m39.08,71.6c-1.35.27-2.62-1.33-2.97-2.5-.15-.51.27-.92.56-1.16.84-.69,1.93-.89,2.91-.49,1,.4,1.86,1.13,2.01,2.32.18,1.34-.54,1.85-2.51,1.84Z"/>
      <path class="cls-3" d="m96.88,127.62c0,1.56-.45,2.04-1.93,2.02-1.37-.02-2.28-1-2.31-2.48-.02-1.41.64-2.02,2.17-2.02,1.61,0,2.07.54,2.07,2.47Z"/>
      <path class="cls-3" d="m49.61,112.41c1.36,0,1.93.58,1.92,1.96,0,1.2-1.31,2.33-2.66,2.31-1.28-.02-2.11-.85-2.08-2.06.03-1.46.99-2.21,2.81-2.21Z"/>
      <path class="cls-3" d="m26.45,74.05c1.4,0,2.23.57,2.15,1.62-.14,1.79-.86,2.56-2.17,2.6-1.1.03-2.06-1.24-2.05-2.62,0-1.21.52-1.6,2.07-1.6Z"/>
      <path class="cls-3" d="m47.56,39.94c0,1.15-.83,1.93-2.08,1.96-1.12.03-2.17-.97-2.19-2.06-.02-1.26,1.02-2.21,2.45-2.22,1.05-.01,1.83.98,1.82,2.33Z"/>
      <path class="cls-3" d="m81.57,119.45c-1.67,0-2.4-.51-2.38-1.66.02-1.09,1.56-2.18,3.05-2.16,1.1.02,1.67.65,1.65,1.84-.02,1.49-.6,1.99-2.31,1.98Z"/>
      <path class="cls-3" d="m60.26,122.77c0,1.12-.85,2.14-1.8,2.14-.82,0-2.45-1.69-2.44-2.52,0-.72,1.61-2.02,2.44-1.99.84.03,1.8,1.29,1.8,2.37Z"/>
      <path class="cls-3" d="m54.53,137.52c.02,1.24-.76,2.01-2.09,2.07-1.12.05-2.15-.89-2.13-1.94.02-1.01,1.27-2.27,2.27-2.29,1-.02,1.94,1.01,1.95,2.16Z"/>
      <path class="cls-3" d="m29.13,61.81c-.02,1.45-.69,2.08-2.17,2.06-1.32-.02-1.86-.55-1.84-1.79.02-1.28,1.18-2.3,2.56-2.26,1.06.03,1.47.6,1.45,1.99Z"/>
      <path class="cls-3" d="m125.78,122.92c.4,0,.76-.08,1.05.02.68.22,1.52.31,1.68,1.22.15.83-.08,1.56-.78,2.07-.73.53-1.5.67-2.29.13-.3-.21-.6-.44-.84-.71-.54-.62-.85-1.39-.49-2.15.32-.69,1.07-.66,1.67-.58Z"/>
      <path class="cls-3" d="m50.58,128.97c0,1.17-.57,1.88-1.5,1.89-1.16,0-2.32-1.15-2.31-2.29.01-1.24.88-2.19,2.03-2.21,1.12-.03,1.78.95,1.77,2.62Z"/>
      <path class="cls-3" d="m26.25,110.69c1.33,0,2.11.8,2.13,2.16.01,1.05-.94,1.87-2.15,1.84-1.01-.02-2.08-1.24-2.09-2.36,0-1.13.67-1.65,2.12-1.64Z"/>
      <path class="cls-3" d="m96.14,153.55c-1.3,0-1.77-.56-1.75-2.04.02-1.43.68-2.2,1.9-2.2,1.24,0,2.07.58,2.03,1.4-.08,1.57-1.06,2.85-2.18,2.85Z"/>
      <path class="cls-3" d="m37.69,93.99c.98-.21,1.64.03,1.66,1.26.03,1.9-.57,2.69-2.18,2.73-.91.02-1.77-.8-1.82-1.77-.08-1.34.79-2.18,2.34-2.23Z"/>
      <path class="cls-3" d="m135.23,143.33c0,1.23-1.01,2.49-1.99,2.5-1.08.01-1.97-.92-2-2.08-.03-1.12,1.18-2.23,2.4-2.2,1.2.03,1.6.47,1.59,1.77Z"/>
      <path class="cls-3" d="m68.51,117.44c.01,1.33-.79,2.24-1.96,2.23-1.05,0-2.3-1.22-2.28-2.23.01-.82,1.22-1.77,2.25-1.76,1.13,0,1.99.76,2,1.76Z"/>
      <path class="cls-3" d="m133.41,132.88c-1.73,0-1.93-.17-1.93-1.72,0-1.59.41-2.02,1.94-2.03,1.43,0,1.82.36,1.82,1.68,0,2.04-.02,2.06-1.82,2.06Z"/>
      <path class="cls-3" d="m70.48,153.47c-.04.81.21,1.54-.76,1.87-1.18.39-2.31.36-3.3-.33-.35-.24-.34-.87.08-1.3.4-.41.78-.85,1.16-1.29.5-.58.97-1.13,1.87-.72.87.39,1.09,1.06.96,1.77Z"/>
      <path class="cls-3" d="m113.86,158.55c-1.37-.02-2.34-1-2.31-2.34.03-1.06.66-1.69,1.72-1.71,1.1-.02,2.18.83,2.19,1.73.02,1.64-.46,2.34-1.6,2.32Z"/>
      <path class="cls-3" d="m39.11,129.16c-.09.7-.73,1.08-1.38,1.53-.72.5-1.05-.09-1.48-.39-.49-.34-.76-.89-.88-1.45-.22-1.08.22-2.04,1.1-2.55.92-.54,1.29.47,1.75,1.02.42.49.89.95.88,1.85Z"/>
      <path class="cls-3" d="m58.8,105.77c-.98,0-2.03-.99-2.03-1.93,0-1.14.9-2.13,1.94-2.12,1.03,0,2.01,1.05,2.07,2.2.04.87-1,1.84-1.98,1.85Z"/>
      <path class="cls-3" d="m107.53,121.82c-.02-1.35.41-1.8,1.74-1.7.9.07,1.66.53,2.21,1.22.65.82.33,1.69-.68,2-.35.11-.71.19-1.07.26-1.64.34-2.18-.1-2.2-1.79Z"/>
      <path class="cls-3" d="m69.79,127.89c1.27,0,1.94.69,1.93,1.99,0,1.25-.69,1.8-2.2,1.78-1.07-.02-1.54-.55-1.54-1.75,0-1.48.48-2.02,1.82-2.02Z"/>
      <path class="cls-3" d="m139.49,139.3c.01-1.2.91-2.18,2.01-2.19,1.08-.01,1.75.68,1.71,1.78-.04,1.16-1.16,2.41-2.2,2.45-.84.03-1.54-.9-1.53-2.04Z"/>
      <path class="cls-3" d="m86.71,159.56c-.65-.12-1.53-.2-1.55-1.41-.02-1.18,1.08-2.65,1.98-2.63.79.02,1.97,1.36,2.01,2.27.03.92-1.01,1.75-2.44,1.77Z"/>
      <path class="cls-3" d="m117.05,138.32c0,1.29-.56,1.81-1.92,1.79-.99-.01-1.81-.25-1.83-1.48-.02-1.5.63-2.27,1.91-2.27,1.22,0,1.83.67,1.83,1.95Z"/>
      <path class="cls-3" d="m18.44,65.28c1.1.02,2,.84,1.99,1.8-.01.89-1.13,1.99-2.03,1.99-.77,0-2.28-1.48-2.23-2.18.05-.74,1.3-1.63,2.27-1.61Z"/>
      <path class="cls-3" d="m146.76,129.62c1.34.03,1.71.45,1.68,1.95-.03,1.4-.49,1.8-2.04,1.79-1.07,0-1.75-.93-1.7-2.28.03-.9.86-1.48,2.06-1.46Z"/>
      <path class="cls-3" d="m123.03,144.97c.01,1.37-.55,1.86-2.11,1.87-1.15,0-2.14-.64-2.15-1.41,0-.81,1.78-2.1,2.9-2.09.98,0,1.34.44,1.35,1.63Z"/>
      <path class="cls-3" d="m22.9,52.72c0,1.49-.15,1.63-1.73,1.63-1.15,0-2.31-.92-2.26-1.8.05-1.04.99-1.68,2.45-1.68,1.4,0,1.54.18,1.54,1.85Z"/>
      <path class="cls-3" d="m167.92,77.57c-.02,1.05-.8,1.8-1.83,1.75-.97-.05-2.2-1.06-2.21-1.84,0-.77,1.17-1.9,1.99-1.91,1.14-.02,2.06.89,2.05,2Z"/>
      <path class="cls-3" d="m43.83,53.6c1.18,0,1.73.48,1.76,1.57.03,1.2-.89,2.4-1.87,2.42-.99.02-1.66-.77-1.65-1.91.02-1.28.68-2.07,1.76-2.07Z"/>
      <path class="cls-3" d="m132.99,112.9c0-1.48.43-1.96,1.74-1.96.96,0,1.99,1.07,1.99,2.07,0,.89-.93,1.65-2.06,1.68-1,.02-1.67-.7-1.67-1.78Z"/>
      <path class="cls-3" d="m148.74,106.21c2.1-.07,1.93.43,2.02,1.7.06.82-.11,1.79-1.36,1.79-1,0-2.83-1.5-2.7-2.32.19-1.21,1.16-1.21,2.04-1.18Z"/>
      <path class="cls-3" d="m123.02,131.81c-.02,1.22-.55,1.88-1.49,1.87-1.01,0-2.27-1.2-2.26-2.13,0-.73,1.17-1.9,1.88-1.9,1.1,0,1.9.92,1.87,2.16Z"/>
      <path class="cls-3" d="m43.83,105.8c0,1.09-.9,2.3-1.67,2.26-.67-.04-1.8-1.47-1.82-2.31-.02-.95,1.02-1.88,2.11-1.84,1.23.05,1.48.85,1.38,1.89Z"/>
      <path class="cls-3" d="m161.63,104.18c.02-.54.28-1.36,1.35-1.49.96-.11,2.15,1.32,2.18,2.46.03,1.05-.54,1.51-1.51,1.55-1.19.06-2.03-.84-2.02-2.53Z"/>
      <path class="cls-3" d="m20.17,101.17c1.03-.02,1.96.85,1.94,1.81-.02.97-1.1,1.95-2.17,1.97-1.02.02-1.54-.57-1.55-1.77,0-1.33.58-1.99,1.78-2.01Z"/>
      <path class="cls-3" d="m63.5,139.46c0,1-1.07,1.63-2.72,1.66-1.19.02-1.15-.89-1.23-1.61-.12-.98.82-1.86,1.86-1.9,1-.04,2.09.92,2.1,1.85Z"/>
      <path class="cls-3" d="m40.43,117.16c1.14-.02,1.7.56,1.57,2.27-.05.62-.06,1.56-1.2,1.53-1.04-.04-2.47-1.45-2.46-2.57,0-1.22.88-1.21,2.09-1.22Z"/>
      <path class="cls-3" d="m28.87,40.6c-.02,1.16-.87,2.02-2.01,2.05-.94.02-1.48-.61-1.47-1.74,0-1.08,1.08-2.28,2.05-2.28.84,0,1.45.84,1.43,1.96Z"/>
      <path class="cls-3" d="m104.36,159.72c-.02,1.16-.62,1.83-1.65,1.83-1.24,0-1.87-.59-1.85-1.74.01-1.1.99-2.33,1.82-2.28.95.06,1.7,1.03,1.68,2.18Z"/>
      <path class="cls-3" d="m87.3,148.84c-1.24,0-1.71-.43-1.7-1.56,0-1.17.65-1.7,1.99-1.66,1.27.04,2.07.69,2.06,1.68-.01,1.11-.68,1.55-2.35,1.55Z"/>
      <path class="cls-3" d="m154.68,125.98c.08.8-.07,1.52-1.05,1.62-.94.1-2.07-.05-2.37-.93-.32-.95.55-1.83,1.12-2.62.32-.45.84-.56,1.34-.34.81.35.89,1.12.95,1.88,0,.12,0,.25,0,.39Z"/>
      <path class="cls-3" d="m152.66,96.49c-1.3-.02-2.03-.62-2.01-1.66.03-1.14.67-1.61,2.15-1.59,1.25.01,1.81.53,1.81,1.63,0,1.16-.58,1.64-1.95,1.62Z"/>
      <path class="cls-3" d="m29.33,85.79c0-1.31.43-1.78,1.64-1.78,1.11,0,1.68.61,1.69,1.81.01,1.08-.75,2.15-1.54,2.18-1.03.04-1.78-.89-1.79-2.22Z"/>
      <path class="cls-3" d="m31.86,101.21c0,1.02-.61,1.67-1.64,1.73-.77.04-1.62-1.04-1.59-2.1.02-.86-.22-1.94,1.24-1.92,1.3.02,1.99.78,1.99,2.28Z"/>
      <path class="cls-3" d="m85.61,140.4c-.68-.11-1.72.04-1.7-1.34.02-1.19.85-1.93,2.17-1.95,1.23-.01,1.57.34,1.58,1.61,0,1.44-.23,1.66-2.05,1.67Z"/>
      <path class="cls-3" d="m81.18,148.96c.19,1.14-.52,1.43-1.54,1.39-1.29-.04-2.03-.68-1.98-1.71.05-1.14.76-1.83,1.86-1.81,1.2.02,1.69.61,1.66,2.12Z"/>
      <path class="cls-3" d="m64.92,14.72c1.24,0,1.83.47,1.82,1.46,0,.93-1.27,2.14-2.22,2.09-1.12-.06-1.24-.91-1.27-1.77-.04-1.39.35-1.78,1.67-1.79Z"/>
      <path class="cls-3" d="m68.19,142.16c.08-.48.1-1.16.32-1.76.34-.93,1.22-.62,1.8-.45.79.24,1.33.88,1.05,1.81-.21.68-.65,1.25-1.24,1.65-.44.29-.99.61-1.48.37-.52-.26-.46-.91-.45-1.62Z"/>
      <path class="cls-3" d="m35.97,29.94c-1.17,0-1.84-.52-1.87-1.46-.03-1.08.76-1.78,2.03-1.8,1.1-.02,1.74.61,1.72,1.7-.02,1.13-.53,1.55-1.88,1.56Z"/>
      <path class="cls-3" d="m35.5,112.94c-.82.01-1.84-.78-1.87-1.47-.04-.92,1.11-1.83,2.29-1.81.97.02,1.54.54,1.66,1.47.11.9-.97,1.79-2.08,1.81Z"/>
      <path class="cls-3" d="m47.07,29.66c-.03,1.22-.68,1.92-1.75,1.88-.38-.01-1.73-1.81-1.75-2.32-.02-.54,1.1-1.54,1.7-1.53.96.02,1.82.97,1.8,1.97Z"/>
      <path class="cls-3" d="m31.12,122.07c.02.86-.86,1.58-2.06,1.58-.82,0-1.58-.25-1.67-1.24-.07-.83,1.22-2.26,1.96-2.25.75.01,1.75,1.09,1.77,1.91Z"/>
      <path class="cls-3" d="m56.94,146.58c.98-.07,1.78.2,1.83,1.33.05.92-1.32,2.31-2.17,2.1-.83-.2-1.29-.94-1.31-1.85-.03-1.15.43-1.58,1.65-1.58Z"/>
      <path class="cls-3" d="m19.69,83.67c-.13.75-.56,1.43-1.5,1.57-.75.11-2.03-1.1-2.03-1.83,0-.68,1.11-1.89,1.71-1.86.67.03,1.82,1.28,1.82,2.12Z"/>
      <path class="cls-3" d="m126.57,139.65c-.74.03-2.05-1.18-2.05-1.89,0-.64,1.14-1.57,1.96-1.6.92-.04,1.74.79,1.78,1.77.02.72-.93,1.69-1.68,1.72Z"/>
      <path class="cls-3" d="m161.14,115.75c.24,1.32-.76,1.35-1.68,1.4-.91.05-1.81-.77-1.81-1.59,0-.77.94-1.61,1.84-1.63,1.25-.03,1.65.4,1.66,1.82Z"/>
      <path class="cls-3" d="m31.17,52.12c-1.15.07-1.56-.51-1.55-1.51.01-1.15.61-1.72,1.74-1.75.95-.02,1.66.3,1.72,1.33.06.97-1,1.93-1.91,1.92Z"/>
      <path class="cls-3" d="m93.11,133.86c1.08.03,1.79.81,1.76,1.96-.02,1.03-.63,1.5-1.59,1.52-1.04.03-1.49-.59-1.44-1.86.05-1.35.29-1.65,1.27-1.62Z"/>
      <path class="cls-3" d="m60.15,132.47c-.01.89-.94,1.77-2.03,1.63-.84-.11-1.41-.66-1.39-1.6.03-1.03.77-1.59,1.9-1.64,1.08-.05,1.45.51,1.52,1.61Z"/>
      <path class="cls-3" d="m161.12,72.9c-1-.12-1.57-.6-1.5-1.63.06-.89.32-1.68,1.4-1.71,1.02-.03,1.86.89,1.87,1.91,0,1.27-.96,1.24-1.77,1.42Z"/>
      <path class="cls-3" d="m37.88,38.63c0,1.15-.73,2.03-1.56,2.01-.63-.01-1.96-1.25-1.97-1.83,0-.66,1.11-1.43,2.04-1.46.99-.03,1.38.53,1.49,1.27Z"/>
      <path class="cls-3" d="m57.71,30.18c-.87.04-2.02-.87-1.92-1.52.13-.89.59-1.49,1.62-1.49,1.24,0,2.14.71,2.08,1.87-.06,1.22-1.29.7-1.78,1.13Z"/>
      <path class="cls-3" d="m143.35,120.91c1.18-.1,1.37.69,1.37,1.59,0,.98-.79,1.66-1.9,1.66-.83,0-1.32-.41-1.36-1.26-.05-1.1.82-1.99,1.88-1.99Z"/>
      <path class="cls-3" d="m69.79,6.74c1.47-.09,1.21,1.2,1.32,1.92.11.69-.18,1.57-1.28,1.57-.93,0-1.84-.69-1.87-1.46-.03-.86.99-2,1.82-2.03Z"/>
      <path class="cls-3" d="m77.72,138.1c-.66-.06-1.03-.66-1.04-1.54-.01-1.1.62-1.91,1.46-1.94.69-.02,1.52.94,1.53,1.76,0,.98-.69,1.71-1.94,1.72Z"/>
      <path class="cls-3" d="m168.63,84.64c-.26.57-.03,1.68-1.34,1.63-1.07-.04-1.46-.83-1.66-1.67-.17-.76.86-1.82,1.63-1.83.85,0,1.34.6,1.37,1.86Z"/>
      <path class="cls-3" d="m151.36,140.13c-.92.01-1.22-.51-1.21-1.35.02-1.11.67-2,1.5-1.9.73.09,1.61.42,1.62,1.18.03,1.31-.85,2.08-1.91,2.06Z"/>
      <path class="cls-3" d="m78.16,13.98c1.06-.07,1.37.54,1.33,1.46-.04,1.04-.72,1.83-1.64,1.75-.8-.07-1.33-.63-1.39-1.45-.07-1.02.72-1.8,1.7-1.77Z"/>
      <path class="cls-3" d="m22.11,94.26c-.74-.1-1.42-.55-1.36-1.47.06-.89.69-1.37,1.64-1.3.89.07,1.65.36,1.79,1.35.09.66-1.04,1.44-2.07,1.41Z"/>
      <path class="cls-3" d="m152.01,114.64c.94.13,1.45.71,1.64,1.6.03.15.05.39-.03.48-.68.74-1.66.59-2.49.63-.53.02-1.12-.57-.95-1.34.21-.97.96-1.25,1.83-1.37Z"/>
      <path class="cls-3" d="m50.9,119.68c.91-.02,1.66.65,1.61,1.51-.06,1.2-1.12,1.09-1.83,1.18-.74.09-1.5-.25-1.62-1.16-.09-.68.97-1.51,1.84-1.54Z"/>
      <path class="cls-3" d="m156.9,80.52c1.11,0,1.97-.29,2.02,1,.04,1.09-.48,1.49-1.46,1.51-1.05.02-1.75-.56-1.79-1.45-.06-1.26.81-1.09,1.24-1.07Z"/>
      <path class="cls-3" d="m166.56,93.52c.94-.26,1.4.22,1.46,1.09.06.99-.69,1.97-1.49,1.84-.87-.15-1.4-.78-1.46-1.72-.07-1.11.55-1.34,1.49-1.21Z"/>
      <path class="cls-3" d="m49.05,19.81c0,.86-.89,1.63-1.93,1.64-.9,0-1.28-.75-1.26-1.38.03-.91.71-1.47,1.69-1.4.72.05,1.59,0,1.5,1.15Z"/>
      <path class="cls-3" d="m193.8,65.1c.05,1.06-.67,1.59-1.5,1.65-.85.06-1.26-.73-1.26-1.5,0-.76.18-1.7,1.17-1.68.83.02,1.56.5,1.58,1.52Z"/>
      <path class="cls-3" d="m43.49,136.13c1.26-.13,1.34.63,1.34,1.57,0,.86-.33,1.21-1.17,1.18-.91-.03-1.89-.74-1.82-1.48.08-1,.7-1.43,1.66-1.27Z"/>
      <path class="cls-3" d="m186.75,67.57c.87-.09,1.36.26,1.3,1.26-.05.83-.89,1.8-1.62,1.69-.84-.13-1.21-.85-1.35-1.57-.14-.72.73-1.39,1.67-1.38Z"/>
      <path class="cls-3" d="m21.66,124.93c-.89.01-1.51-.29-1.56-1.23-.03-.65,1.01-1.62,1.66-1.56.94.09,1.38.75,1.39,1.6,0,.95-.7,1.21-1.49,1.19Z"/>
      <path class="cls-3" d="m196.14,80.02c-.56-.57-1.56-.97-1.08-2.07.3-.69.89-1.01,1.71-.92.72.08,1.12.64,1.14,1.12.04,1.01-.67,1.59-1.77,1.87Z"/>
      <path class="cls-3" d="m156.95,133.12c-.88-.01-1.57-.31-1.52-1.24.04-.75.52-1.24,1.37-1.25.9-.01,1.53.27,1.6,1.27.07,1.09-.78,1.08-1.44,1.23Z"/>
      <path class="cls-3" d="m112.7,148.12c-.76-.09-1.65-.01-1.63-1.19.02-.87.59-1.3,1.34-1.31.91-.02,1.39.5,1.43,1.49.04.89-.39,1.07-1.14,1.02Z"/>
      <path class="cls-3" d="m134.17,153c.81.1,1.33.45,1.31,1.26-.02.83-.49,1.33-1.34,1.28-.71-.04-1.42-.21-1.37-1.19.05-.93.66-1.24,1.4-1.36Z"/>
      <path class="cls-3" d="m187.09,90.47c-.02,1.36-.89,1.45-1.72,1.52-.62.05-1.16-.21-1.29-.86-.1-.49,1.12-1.64,1.71-1.53.55.11,1.44.04,1.31.88Z"/>
      <path class="cls-3" d="m98.68,143.25c-.02.79-.06,1.42-1.06,1.37-.86-.04-1.34-.34-1.28-1.26.06-.84.39-1.45,1.32-1.5,1.1-.06.92.82,1.02,1.39Z"/>
      <path class="cls-3" d="m78.94,155.44c.1.82-.21,1.5-1.04,1.54-.81.04-1.29-.6-1.25-1.39.04-.74.42-1.42,1.25-1.47.85-.05,1.12.55,1.04,1.33Z"/>
      <path class="cls-3" d="m126.89,151.08c-.58-.04-1.41.12-1.39-.76.02-.74.43-1.48,1.36-1.49.88,0,1.38.51,1.43,1.39.06,1.11-.78.81-1.41.86Z"/>
      <path class="cls-3" d="m187.54,85.51c-.03.49-.18,1.02-.96,1.01-.81,0-1.54-.78-1.54-1.59,0-.82.59-.87,1.16-.88.94-.02,1.37.43,1.34,1.47Z"/>
      <path class="cls-3" d="m187.61,63.42c-.03.68-.2,1.37-.96,1.34-.68-.03-1.38-.43-1.34-1.29.03-.68.14-1.4,1.12-1.42.98-.01,1.11.64,1.18,1.36Z"/>
      <path class="cls-3" d="m199.74,74.07c-.04-.86.05-1.48,1.05-1.53,1.12-.06,1.13.81,1.18,1.45.09,1.01-.82,1.17-1.53,1.23-.94.09-.62-.74-.71-1.15Z"/>
      <path class="cls-3" d="m198.58,61.32c1,.03,1.41.42,1.39,1.24-.01.86-.71,1.2-1.3,1.21-.64,0-1.22-.53-1.21-1.29.01-.79.52-1.16,1.11-1.16Z"/>
      <path class="cls-3" d="m171.89,86.56c.95-.11,2.06-.15,2.33.66.24.75-.45,1.57-1.46,1.78-.89-.54-1.11-1.34-.87-2.44Z"/>
      <path class="cls-3" d="m142.16,149.57c-.85-1.03-.96-2.17-.25-2.66.6-.42,1-.02,1.31.46.59.89.31,1.49-1.06,2.2Z"/>
      <path class="cls-3" d="m55.03,15.16c.09-.94-.33-2.05,1.08-2.15.53-.04,1.2.06,1.18.92-.02.94-.62,1.3-2.26,1.23Z"/>
      <path class="cls-3" d="m192.12,82.27c.78-.02,1.34.22,1.38.99.03.74-.27,1.24-1.15,1.27-.86.03-1.08-.44-1.06-1.14.01-.6.05-1.21.83-1.12Z"/>
      <path class="cls-3" d="m179.77,88.24c-.97.09-1.42-.23-1.46-1-.04-.68.42-1.02.98-.95.69.08,1.64.17,1.71,1.05.07.89-.83.82-1.23.9Z"/>
      <path class="cls-3" d="m89.19,10.85c-.03.73-.53.89-1.02.85-.7-.06-1.42-.28-1.52-1.14-.06-.54.27-1.06.84-.99.77.1,1.51.41,1.71,1.27Z"/>
      <path class="cls-3" d="m96.71,7.77c-.59-.13-1.35-.15-1.37-1.04-.02-.65.48-.99,1.06-.94.69.06,1.43.25,1.47,1.16.03.78-.59.75-1.16.81Z"/>
      <path class="cls-3" d="m89.28,4.46c.62.39,1.3.69,1.36,1.49.04.56-.46.89-.89.74-.63-.22-1.53-.32-1.57-1.25-.02-.66.67-.69,1.1-.98Z"/>
      <path class="cls-3" d="m105.41,150.83c-.58.25-1.01.01-1.04-.56-.03-.59.28-1.17.96-1.18.68-.01,1.42.34,1.44,1.03.03.79-.79.69-1.37.7Z"/>
      <path class="cls-3" d="m104.84,5.41c.01.74-.41,1.18-1.08,1.28-.53.08-.85-.39-.85-.84,0-.77.57-1.2,1.27-1.29.51-.07.66.39.67.84Z"/>
      <path class="cls-3" d="m80.91,6.25c-.57.08-1.04-.05-.97-.74.06-.61.37-1.19,1.04-1.16.49.02,1.03.28.98,1.02-.05.68-.37.98-1.04.89Z"/>
      <path class="cls-3" d="m111.52,5.54c-.71-.48-.35-1.1-.48-1.63.55-.27,1.01-.23,1.51-.03.14.84-.31,1.29-1.03,1.65Z"/>
      <path class="cls-3" d="m171.05,157.39c.19-.02.38-.04.56-.05-.17.15-.36.22-.56.05Z"/>
      <path class="cls-3" d="m168.63,154.87c-.18.18-.36.18-.55,0,.18,0,.36,0,.55,0Z"/>
      <path class="cls-3" d="m165.89,154.86c-.18.17-.36.16-.53-.02.18,0,.36.01.53.02Z"/>
      <path class="cls-3" d="m169.66,154.9c-.12.11-.23.09-.33-.02.11,0,.22.01.33.02Z"/>
      <path class="cls-3" d="m167.64,154.87c-.1.14-.2.14-.3,0,.1,0,.2,0,.3,0Z"/>
      <path class="cls-3" d="m166.64,154.88c-.11.14-.21.13-.3,0,.1,0,.2,0,.3,0Z"/>
      <path class="cls-3" d="m174.1,72.52c-.92.1-1.89,0-2.81-.39-2.42-1.04-2.96-2.92-1.56-5.38,2.02-3.54,6.84-4.04,8.96-.91.96,1.42,1.24,2.91.37,4.53-.85,1.58-2.32,1.93-3.89,2.14-.33.04-.66,0-1.07,0Zm-2-4.56c-.25,1.44.54,2.34,2.03,2.35,1.65,0,2.44-.58,2.46-1.87.02-2.02-.37-2.55-1.74-2.63-2.51-.14-2.72.29-2.75,2.15Z"/>
      <path class="cls-2" d="m172.1,67.96c.03-1.87.24-2.29,2.75-2.15,1.37.08,1.76.61,1.74,2.63-.02,1.29-.8,1.88-2.46,1.87-1.49,0-2.28-.91-2.03-2.35Z"/>
    </g>
  </g>
</svg>