<?xml version="1.0" encoding="UTF-8"?>
<svg id="Calque_2" data-name="Calque 2" xmlns="http://www.w3.org/2000/svg" viewBox="0 0 249.7 64.98">
  <defs>
    <style>
      .cls-1 {
        fill: #bcaf87;
      }

      .cls-1, .cls-2 {
        stroke: #bcaf87;
        stroke-miterlimit: 10;
      }

      .cls-2 {
        fill: #fff;
      }
    </style>
  </defs>
  <g id="Calque_1-2" data-name="Calque 1">
    <g>
      <path class="cls-1" d="m206.02,55.21c.12.2.19.35.28.48,1.59,2.1,1.62,2.14-.51,3.61-2.46,1.7-5.15,2.95-8.02,3.8-1.59.47-3.09,1.15-4.8,1.23-2,.09-4,.23-6.01.09-7.47-.5-13.64-3.75-18.91-8.93-3.18-3.13-5.39-6.8-7.25-10.87-2.18-4.77-4.49-9.61-8.11-13.48-2.02-2.17-4.42-4.13-7.11-5.56-1.48-.78-1.98-.67-2.98.67-1.92,2.59-4.17,4.9-6,7.6-1.11,1.63-1.35,3.06-1.35,4.79.01,3.03-.02,6.07.04,9.1.02.91-.3,1.17-1.14,1.12-.82-.05-1.65-.01-2.56-.01V1.29h3.63v28.78c.97-.12,1.33-.76,1.7-1.32,2.92-4.4,6.29-8.44,9.56-12.57,2.78-3.51,5.22-7.27,8-10.79,1-1.26,2.4-2.19,2.98-3.79.14-.39.58-.41.97-.4.95.01,1.9,0,2.88,0,.22,1.08-.32,1.85-.95,2.36-2.02,1.66-3.25,3.95-4.9,5.9-2.13,2.53-4.02,5.26-6.22,7.75-1.24,1.4-1.93,3.28-3.54,4.62,1.56,1.11,3.13,1.95,4.53,3.04,3.73,2.91,6.86,6.27,9.1,10.51,2.13,4.02,3.9,8.21,6.22,12.14,2.03,3.43,4.63,6.2,7.75,8.62,2.88,2.24,6.15,3.64,9.64,4.27,3.19.57,6.39,1.02,9.77.52,4.87-.72,8.89-2.92,12.82-5.56.1-.07.23-.09.47-.17Z"/>
      <path class="cls-1" d="m64.04,15.51c.81,0,1.63,0,2.44,0,.27.21.53.21.8,0,.89,0,1.79,0,2.68,0,.11.15.21.14.31,0,1.94-.08,1.95-.08,1.95-2.02,0-4.02,0-8.04,0-12.1.89-.31,1.76-.16,2.61-.16.78,0,.62.62.62,1.09,0,6.85,0,13.7,0,20.55,0,7.06,0,14.12,0,21.17,0,1.21.2,2.4.04,3.63-.1.81-.25,1.24-1.14,1.17-.65-.05-1.31,0-1.9,0-.36-.52-.22-.99-.22-1.43-.01-9.13-.02-18.27,0-27.4,0-.91-.13-1.32-1.2-1.32-6.97.05-13.94.02-20.91.02-.4,0-.83-.07-1.25.25.14,9.26.14,18.55.01,27.85,0,.19.01.39.02.58-.02.15-.03.3-.05.46-.63-.05-.56.36-.51.76-.93.69-1.94-.21-2.95.23V1.27c1.22.02,2.39-.24,3.55.15.03.11.05.22.08.34,0,.32,0,.63,0,.95-.03.03-.08.06-.07.09,0,.07.04.14.06.21-.03,3.55-.07,7.1-.1,10.64-.12.28-.12.57.02.85,0,.13,0,.27-.01.4-.09.12-.08.24.03.34.11.39.41.58.74.44.87-.37,1.73.01,2.59-.02.1-.05.21-.1.31-.14.31,0,.63,0,.94,0,.18.18.37.18.55,0,.23,0,.46,0,.69,0,.1.14.2.14.31,0,.23,0,.46,0,.69,0,.1.14.2.14.31,0,2.56,0,5.11,0,7.67,0,.1.14.2.14.31,0Z"/>
      <path class="cls-1" d="m220.01,37.19c-1.29,3.54-2.8,6.99-4.3,10.45-.08.18-.22.35-.37.48-.45.39-2.99.46-3.72.03,1.78-1.79,2.23-4.26,3.29-6.42,1.17-2.37,2.03-4.9,2.95-7.38,1.07-2.89,2.1-5.8,3.07-8.72,1.42-4.28,2.76-8.58,4.06-12.89.76-2.51,1.43-5.1,2.59-7.49.59-1.22,1.19-2.45,1.14-3.94h3.64c5.12,15.84,10.51,31.69,16.6,47.54-1.16,0-2.14-.02-3.11,0-.58.02-.76-.41-1-.79-.77-1.24-1.09-2.66-1.43-4.05-.55-2.25-1.83-4.24-2.31-6.51-.14-.65-.62-.39-.97-.47-.11-.14-.22-.12-.31.02-6.37.07-12.75.15-19.12-.04-.27-.09-.59-.38-.71.17Zm19.71-3.46c-2.99-9.04-5.45-18.22-9.11-27.14-1.2,2.1-9.32,25.94-9.07,27.12.96.21,16.6.25,18.19.02Z"/>
      <path class="cls-1" d="m14.25,45.49c4.98.52,10.17-2.25,11.61-6.97.2-.67.7-1.28.77-1.95.17-1.63,1.13-1.87,2.47-1.69.48.06.98.01,1.4.01.49.89-.23,1.42-.4,2.06-1,3.8-2.99,7.1-5.96,9.58-1.83,1.53-4.24,2.31-6.7,2.59-.09,0-.19,0-.28.01-6.65.44-11.55-2.51-15.18-7.9-.81-1.21-1.13-2.6-1.2-3.95-.39-6.79-.28-13.58-.22-20.38.02-2.03,0-4.05.4-6.04.59-2.96,2.39-5.08,4.81-6.79C8.61,2.05,11.73.99,15.23.94c6.15-.09,10.7,2.62,13.61,7.91.92,1.67,1.12,3.73,1.67,5.66-1,.3-1.87.12-2.72.19-.54.05-.66-.43-.82-.8-.46-1.11-.95-2.21-1.34-3.34-1.4-3.99-4.43-5.81-8.4-6.33-4.27-.55-7.96.54-10.73,4.03-1.41,1.79-2.38,3.81-2.71,6.05-.61,4.07-.26,8.18-.34,12.28-.05,2.45,0,4.9.05,7.35.11,5.78,4.33,10.79,10.42,11.49.11.02.22.03.34.05Z"/>
      <path class="cls-1" d="m116.35,34.48c.48,4.27-2.27,7.96-5.47,11.2-2.61,2.64-6.16,3.88-9.87,3.55-8.58-.76-14.81-6.32-14.97-16.11-.06-4.03,1.67-7.78,4.83-10.64,2.38-2.15,5.21-3.68,8.29-3.97,10.9-1.02,17.35,7.63,17.2,15.96Zm-15.18-12.83c-7.16.25-12.21,5.5-12.36,12.21-.14,6.74,5.12,11.76,12.01,11.87,7.69.12,12.39-4.72,12.33-12.09-.06-7.3-3.91-11.34-11.99-11.99Z"/>
      <path class="cls-1" d="m173.91,32.62c.26-5.67,4.48-11.42,9.5-13.01,1.99-.63,4-1.36,6.1-1.15,3.4.34,6.68,1.15,9.21,3.75,1.47,1.51,3.06,2.91,3.97,4.87,1.67,3.58,2.7,7.14.88,11.07-.6,1.3-1,2.67-1.93,3.8-1.99,2.41-3.75,4.82-6.96,6.11-2.87,1.16-5.71,1.68-8.42.91-3.67-1.04-6.99-2.97-9.5-6.18-2.34-2.99-2.8-6.34-2.87-9.89.03-.03.07-.06.07-.09-.01-.07-.04-.14-.07-.21Zm2.88,2.67c-.1,2.14.45,3.01,2.09,5.25,2.92,3.97,7.03,5.65,11.92,4.97.85-.12,1.85.05,2.52-.29,2.54-1.31,4.83-2.9,6.22-5.63,2.01-3.95,2.07-7.78,0-11.67-1.14-2.15-2.6-3.81-4.97-4.88-3.2-1.45-6.3-1.99-9.52-.58-5.1,2.23-8.35,5.84-8.26,12.84Z"/>
      <path class="cls-1" d="m104.25,4.53c-1.16,0-2.42-.93-2.37-1.76.05-.79,1.49-2.29,2.18-2.27,1.42.04,2.64,1.1,2.61,2.26-.03,1.07-.99,1.77-2.41,1.77Z"/>
      <path class="cls-1" d="m100.14,2.74c-.02,1.03-1.05,2.02-2.08,1.99-1.22-.04-2.2-.89-2.15-1.87.05-1.02,1.26-2.16,2.29-2.15.98,0,1.96,1.03,1.94,2.03Z"/>
      <path class="cls-1" d="m186.22.73c1.18.02,1.82.75,1.84,2.11.01,1.04-.92,1.91-2.02,1.88-1.09-.03-1.98-1-1.94-2.12.04-1.13.9-1.89,2.12-1.87Z"/>
      <path class="cls-1" d="m192.03,4.48c-1.29,0-2.25-.77-2.23-1.77.01-.97,1.09-1.96,2.15-1.98,1.09-.02,2.33.99,2.34,1.91.01,1.02-.99,1.85-2.25,1.84Z"/>
      <path class="cls-1" d="m48.34,48.61c-.05-.4-.12-.82.51-.76.49.69-.12.66-.51.76Z"/>
      <path class="cls-1" d="m67.28,15.51c-.27.21-.53.21-.8,0,.27-.1.53-.1.8,0Z"/>
      <path class="cls-1" d="m48.93,14.49c-.13-.28-.13-.56-.02-.85.2.28.19.56.02.85Z"/>
      <path class="cls-1" d="m220.01,37.19c.12-.55.44-.26.71-.17-.24.06-.47.12-.71.17Z"/>
      <path class="cls-1" d="m48.9,47.39c0-.19-.01-.39-.02-.58.17.19.18.39.02.58Z"/>
      <path class="cls-1" d="m54.08,15.51c-.18.18-.37.18-.55,0,.18,0,.37,0,.55,0Z"/>
      <path class="cls-1" d="m56.07,15.51c-.1.14-.2.14-.31,0,.1,0,.2,0,.31,0Z"/>
      <path class="cls-1" d="m17.17,49.12c.09,0,.19,0,.28-.01-.09,0-.19,0-.28.01Z"/>
      <path class="cls-1" d="m14.25,45.49c-.11-.02-.22-.03-.34-.05.11.02.22.03.34.05Z"/>
      <path class="cls-1" d="m239.84,37.05c.1-.14.2-.15.31-.02-.1,0-.21.01-.31.02Z"/>
      <path class="cls-1" d="m173.91,32.62c.02.07.06.14.07.21,0,.02-.05.06-.07.09,0-.1,0-.2,0-.29Z"/>
      <path class="cls-1" d="m70.27,15.51c-.1.15-.2.16-.31,0,.1,0,.21,0,.31,0Z"/>
      <path class="cls-1" d="m64.04,15.51c-.1.14-.2.14-.31,0,.1,0,.2,0,.31,0Z"/>
      <path class="cls-1" d="m55.08,15.51c-.1.14-.2.14-.31,0,.1,0,.2,0,.31,0Z"/>
      <path class="cls-1" d="m52.59,15.51c-.1.05-.21.1-.31.14.06-.13.15-.22.31-.14Z"/>
      <path class="cls-1" d="m48.95,15.23c-.11-.1-.12-.22-.03-.34.01.11.02.23.03.34Z"/>
      <path class="cls-2" d="m49.01,3c-.02-.07-.06-.14-.06-.21,0-.03.05-.06.07-.09,0,.1,0,.2,0,.3Z"/>
      <path class="cls-2" d="m49.02,1.75c-.03-.11-.05-.22-.08-.34.03.11.05.22.08.34Z"/>
    </g>
  </g>
</svg>